<svg width="1492" height="1479" viewBox="0 0 1492 1479" fill="none" xmlns="http://www.w3.org/2000/svg">
<path d="M1483.87 629.922C1478.94 593.601 1470.29 558.065 1459.71 523.005C1450.85 493.677 1440.08 465.058 1427.53 437.082C1414.64 408.36 1400.26 380.423 1383.88 353.581C1375.55 339.928 1366.31 326.816 1357.17 313.679C1338.57 286.953 1317.94 261.849 1295.78 238.021C1271.73 212.171 1246.12 188.008 1218.61 165.867C1195.93 147.616 1172.52 130.344 1147.77 115.043C1124.79 100.836 1100.89 88.278 1076.86 75.9003C1054.23 64.2439 1031.04 53.927 1007.13 45.4648C973.232 33.4606 938.593 24.0066 903.399 16.446C860.843 7.28834 817.836 2.05904 774.391 0.487674C730.007 -1.10945 685.726 1.23472 641.754 7.2497C601.463 12.7624 561.713 21.3405 523.031 34.1046C501.573 41.1886 480.32 48.7621 459.377 57.469C441.214 65.0167 423.179 72.7833 405.789 81.7865C377.701 96.3152 350.681 112.686 324.306 130.293C293.322 150.965 264.655 174.484 237.339 199.51C200.988 232.818 168.369 269.655 139.354 309.699C115.167 343.071 94.0947 378.272 75.7257 415.058C56.8675 452.822 41.2275 491.977 29.6809 532.665C25.1241 548.714 20.2068 564.749 17.1431 581.094C12.818 604.188 7.95219 627.205 5.72525 650.685C3.74289 671.564 0.550523 692.313 0.962442 713.372C2.68735 714.944 3.66566 716.438 0.486161 717.417C-0.183207 719.632 -0.0931002 721.873 0.344564 724.114C-0.0673552 740.833 0.228711 757.525 0.74361 774.256C1.43872 797.453 3.6013 820.496 6.83228 843.396C13.6161 891.439 24.7121 938.49 41.0087 984.291C60.047 1037.79 84.0928 1088.85 114.768 1136.66C143.898 1182.08 177.47 1223.99 215.842 1261.92C231.302 1277.2 247.457 1291.71 264.282 1305.61C280.308 1318.84 296.373 1331.97 313.338 1343.89C349.677 1369.4 388.025 1391.53 428.367 1410.17C456.416 1423.13 485.019 1434.69 514.471 1443.89C572.95 1462.14 632.704 1474.02 693.977 1477.47C740.279 1480.08 786.569 1479.59 832.652 1474.11C871.167 1469.52 909.153 1462.02 946.573 1451.55C988.332 1439.87 1028.65 1424.43 1067.87 1406.11C1085.33 1397.96 1102.2 1388.62 1118.94 1379.03C1169.16 1350.25 1215.3 1315.95 1257.52 1276.42C1302.29 1234.5 1341.24 1187.64 1374.44 1136.06C1382.41 1123.68 1390.97 1111.57 1396.72 1097.87C1401.14 1092.78 1404.42 1087.05 1406.58 1080.66C1406.8 1080.35 1406.89 1080.02 1406.88 1079.64C1408.36 1079.19 1409.33 1078.44 1408.59 1076.71C1411.44 1070.79 1414.29 1064.89 1417.14 1058.98C1417.8 1058.48 1418.75 1058.12 1419.06 1057.46C1423.51 1047.97 1428.25 1038.58 1432.16 1028.86C1435.74 1019.99 1440.53 1011.56 1442.25 1002C1442.52 1000.89 1442.79 999.799 1443.06 998.691C1445.63 997.596 1445.36 995.303 1445.39 993.14C1445.6 992.895 1445.69 992.612 1445.66 992.302C1446.99 991.646 1447.87 990.757 1447.2 989.121C1447.53 987.601 1447.87 986.081 1448.21 984.562C1451.1 981.998 1452.22 978.688 1452.35 974.94C1452.54 974.116 1452.72 973.292 1452.91 972.467C1458.28 961.107 1461.12 948.897 1464.45 936.88C1465.89 931.637 1469.14 926.756 1468.35 920.947C1473.62 903.211 1477.42 885.166 1479.79 866.825C1480.99 866.245 1481.14 865.331 1480.66 864.198C1482.67 849.656 1484.68 835.127 1486.69 820.586C1488.22 818.963 1487.83 817.134 1487.28 815.292C1487.47 812.317 1487.68 809.341 1487.89 806.353C1490.81 792.469 1490.77 778.301 1491.41 764.248C1493.46 719.233 1489.96 674.462 1483.9 629.897L1483.87 629.922ZM1271.42 285.214C1271.67 282.792 1272.17 280.255 1274.54 279.263C1277.11 278.194 1278.41 280.783 1279.61 282.303C1291.43 297.36 1304.16 311.669 1315.64 327.061C1325.37 340.109 1333.48 354.122 1342.54 367.53C1353.36 383.514 1362.06 400.915 1371.74 417.659C1381.83 435.099 1389.09 453.904 1397.75 472.026C1398.58 473.765 1399.44 475.516 1399.97 477.358C1401.04 481.081 1400.15 482.085 1396.38 481.841C1393.48 481.171 1390.82 480.359 1388.19 478.556C1376.36 470.467 1369.74 457.961 1360.93 447.322C1348.93 432.858 1335.12 421.536 1315.25 419.875C1308.41 419.295 1301.58 419.205 1294.75 418.986C1287.95 418.767 1285.67 415.624 1288.49 409.416C1292.37 400.877 1295.92 392.492 1297.55 383.025C1300.73 364.606 1296.65 347.837 1288.88 331.479C1284.1 321.433 1279.37 311.373 1274.46 301.391C1271.94 296.239 1270.86 290.907 1271.42 285.214ZM1379.37 549.796C1380.07 565.355 1379.91 581.004 1375.82 596.293C1371.49 612.444 1360.73 623.547 1347.54 632.666C1343.51 635.448 1343.21 631.236 1343.24 629.111C1343.34 618.949 1340.43 609.314 1337.12 600.079C1331.83 585.345 1329.07 569.785 1322.42 555.553C1320 550.362 1320.16 544.644 1318.16 539.582C1315.45 532.678 1311.31 526.367 1308.33 519.553C1303.36 508.193 1298.08 496.949 1293.05 485.653C1289.39 477.448 1286.07 468.845 1281.13 461.168C1280.09 459.558 1278.97 457.961 1278.18 456.235C1275.92 451.186 1277.68 447.348 1283.02 446.433C1286.79 445.776 1290.69 445.905 1294.53 445.673C1310.41 445.48 1323.56 451.972 1334.81 462.572C1341.49 468.857 1348.12 475.207 1354.06 482.304C1362.28 492.106 1372.38 499.46 1385.13 502.693C1392.18 504.484 1392.22 505.669 1389.06 512.379C1383.5 524.19 1378.74 536.117 1379.36 549.821L1379.37 549.796ZM1369.65 858.221C1364.9 860.733 1359.56 861.712 1355.15 864.803C1353.91 865.125 1352.67 865.447 1351.44 865.769C1349.67 866.233 1347.91 866.683 1346.15 867.147C1345.32 866.645 1344.5 866.13 1343.68 865.627C1349.85 843.164 1350.45 819.967 1353.41 797.067C1355.15 783.633 1355.62 770.199 1355.8 756.945C1356.02 740.897 1356.84 724.681 1354.62 708.516C1353.25 698.612 1352.78 688.514 1351.72 678.506C1351.26 674.024 1354.27 672.066 1360.51 673.444C1374.52 676.535 1385.31 684.624 1393.67 696.074C1400.61 705.58 1404.09 716.721 1407.51 727.721C1411.95 741.992 1418.58 754.601 1430.46 764.029C1433.32 766.296 1434.26 768.641 1430.91 771.229C1414.72 783.736 1407.41 801.82 1400.15 819.993C1393.85 835.758 1385.5 849.862 1369.65 858.234V858.221ZM1386.25 879.718C1386.31 877.928 1385.76 876.253 1384.87 874.424C1385.77 876.253 1386.32 877.928 1386.25 879.718ZM1374.16 1022.52C1360.98 1026.73 1348.94 1032.69 1339.25 1043.08C1330.24 1052.74 1320.87 1061.93 1309.67 1069.42C1295.29 1079.01 1279.7 1081.06 1263.25 1080.29C1258.11 1080.04 1256.92 1077.59 1259.94 1073.65C1272.07 1057.84 1281.26 1040.16 1291.94 1023.43C1294.85 1018.87 1294.08 1013.25 1296.36 1008.26C1302.91 993.925 1311.33 980.569 1317.96 966.388C1324.32 952.812 1326.52 937.614 1329.61 922.866C1330.66 917.856 1331.82 912.858 1333.35 907.977C1334.73 903.585 1337.41 902.271 1341.44 905.581C1344.08 907.745 1346.96 909.6 1349.74 911.596C1351.03 915.396 1354.85 917.083 1356.87 920.445C1366.46 936.403 1367.73 953.572 1366.16 971.63C1365.08 983.995 1363.32 996.707 1369.02 1008.67C1369.59 1010.36 1370.17 1012.03 1370.73 1013.72C1370.75 1017.1 1373.24 1019.51 1374.16 1022.52ZM1144.89 1149.45C1145.34 1154.04 1144.66 1155.63 1139.81 1155.39C1130.8 1154.94 1121.9 1156.33 1112.95 1157.32C1089.01 1159.99 1070.96 1174.62 1051.73 1186.95C1034.62 1197.91 1018.35 1210.3 999.415 1218.19C994.665 1220.18 989.619 1221.26 983.595 1221.22C980.171 1221.48 976.373 1220.2 972.911 1217.88C969.036 1215.29 968.032 1213.39 973.181 1210.44C990.198 1200.65 1007.36 1191.07 1023.65 1180.03C1043.35 1166.7 1062.8 1153.03 1080.99 1137.69C1124.11 1101.31 1158.61 1057.71 1187.43 1009.43C1192.48 1000.98 1197.42 992.47 1202.47 984.021C1203.28 982.668 1203.15 980.221 1205.48 980.401C1207.65 980.582 1208.58 982.617 1209.42 984.317C1213.99 993.629 1212.7 1003.22 1209.91 1012.56C1206.16 1025.06 1198.98 1035.95 1190.92 1045.86C1174.4 1066.13 1162.53 1089.22 1149.8 1111.73C1143.37 1123.09 1143.63 1136.57 1144.9 1149.48L1144.89 1149.45ZM349.677 1110.44C334.81 1085.34 314.536 1063.88 301.483 1037.61C299.488 1033.61 297.969 1029.36 295.974 1025.35C291.558 1016.49 295.484 1009.78 301.328 1003.51C304.289 1000.34 305.358 1003.57 306.439 1005.29C313.892 1017.01 321.371 1028.7 329.584 1039.92C360.774 1082.46 395.877 1121.1 438.253 1153.01C471.876 1178.32 507.301 1200.66 543.949 1221.19C546.266 1222.49 550.205 1223.73 549.934 1226.11C549.548 1229.46 545.416 1230.24 542.352 1231C540.1 1231.56 537.68 1231.45 536.599 1231.54C525.889 1231.29 517.251 1227.83 508.781 1224.35C480.989 1212.95 454.549 1198.71 428.843 1183.3C411.8 1173.09 394.203 1170.54 375.216 1174.26C371.561 1174.97 368.896 1175.61 369.45 1170.2C371.767 1147.35 360.696 1129.05 349.677 1110.44ZM134.746 1003.98C133.176 990.525 133.407 977.065 135.158 963.619C136.085 956.47 139.56 950.751 144.31 945.625C149.832 939.662 155.342 933.672 160.941 927.761C164.031 924.502 166.206 923.484 168.15 929.268C180.044 964.585 193.676 999.193 210.539 1032.49C222.433 1055.97 235.859 1078.59 249.015 1101.36C251.229 1105.18 250.881 1105.89 246.762 1106.32C242.939 1106.72 239.193 1107.78 236.58 1107.58C225.703 1107.68 216.718 1105.21 208.093 1101.13C192.543 1093.76 178.847 1083.69 166.283 1072.09C156.024 1062.64 144.478 1055.57 131.103 1051.59C128.078 1050.69 126.752 1049.89 128.657 1046.4C130.858 1042.34 131.863 1037.64 133.948 1033.51C138.904 1023.72 135.892 1013.88 134.746 1004V1003.98ZM70.1777 769.104C69.4697 771.229 71.3748 772.26 74.2325 773.02C79.2399 764.789 82.9858 756.057 84.981 746.603C90.9281 737.149 94.1848 726.407 99.3853 716.592C108.589 704.627 119.711 695.379 134.643 691.412C137.797 690.575 140.899 690.265 144.104 690.562C146.138 693.434 142.997 695.585 142.984 698.2C142.933 714.982 142.302 731.778 143.255 748.548C144.078 748.303 144.774 747.878 145.095 747.169C144.774 747.878 144.078 748.29 143.255 748.548C143.306 751.484 143.345 754.421 143.396 757.358C144.503 757.641 145.404 758.427 145.829 759.277C145.417 758.427 144.516 757.654 143.396 757.358C142.997 768.19 143.499 778.97 145.288 789.674C145.971 817.095 149.755 844.233 152.626 871.462C153.154 876.498 153.166 881.573 155.303 886.506C157.144 890.743 154.222 893.1 149.704 891.89C139.74 889.236 131.193 882.977 121.101 880.671C116.66 876.859 112.219 873.059 107.778 869.247C99.7843 859.599 94.6354 848.252 90.9023 836.608C86.2683 822.157 78.6478 810.436 66.4575 801.588C65.2475 800.712 64.0246 799.849 62.9047 798.857C56.417 793.138 56.4299 792.147 63.2394 786.879C68.0666 783.156 72.1987 778.945 74.2068 773.02C71.3619 772.26 69.4568 771.229 70.1519 769.104H70.1777ZM172.295 747.079C171.767 745.766 171.368 744.452 171.136 743.138C171.381 744.452 171.767 745.766 172.295 747.079C172.359 742.365 172.424 737.664 172.488 732.95C175.037 723.972 174.123 714.66 174.754 705.541C176.775 676.432 180.907 647.645 187.575 619.309C197.898 575.414 215.546 534.314 236.207 494.308C251.177 465.29 269.585 438.731 289.718 413.254C295.896 405.436 302.732 398.133 309.799 389.993C314.69 401.997 311.626 412.275 306.477 421.601C294.892 442.569 282.599 463.152 270.37 483.76C259.158 502.642 252.568 523.031 249.774 544.721C248.539 554.304 252.375 562.817 255.966 571.292C258.051 576.226 260.227 581.184 263.033 585.718C266.148 590.741 263.947 592.493 259.377 593.485C255.181 594.399 251.229 596.009 247.213 597.503C227.453 604.858 217.413 620.803 209.805 639.029L207.784 645.301C206.793 646.01 206.085 646.885 206.149 648.199C201.232 662.11 200.898 676.729 199.61 691.193C197.924 710.191 195.864 729.137 189.428 747.234C186.532 755.4 182.001 762.522 172.308 767.134C172.308 761.544 172.308 756.958 172.308 752.373C171.806 752.695 171.317 753.313 170.802 753.79C171.304 753.326 171.806 752.695 172.308 752.373C172.308 750.608 172.308 748.857 172.308 747.092L172.295 747.079ZM334.797 384.03C334.733 381.634 335.106 379.805 338.208 379.934C377.199 381.544 407.629 362.121 437.172 340.031C453.919 327.512 471.593 316.216 490.979 308.192C497.981 305.294 505.988 304.792 513.698 305.693C517.187 306.105 520.469 308.462 521.139 311.863C521.795 315.134 518.345 316.925 515.809 318.393C495.986 329.856 476.69 342.118 457.999 355.333C438.781 368.921 420.373 383.501 402.969 399.447C373.401 426.547 349.33 458.051 327.112 491.153C313.673 511.181 301.534 531.995 290.039 553.196C288.006 556.957 286.499 561.001 284.556 564.814C283.513 566.862 282.483 569.528 279.728 569.412C276.806 569.296 276.266 566.398 275.725 564.221C274.592 559.675 273.833 555.025 273.292 552.281C273.511 535.602 278.827 522.4 286.461 510.074C301.792 485.331 317.162 460.627 330.008 434.442C335.029 424.215 334.964 413.357 335.247 402.5C335.415 396.343 334.977 390.173 334.797 384.017V384.03ZM1164.56 417.273C1169.64 433.824 1178.79 448.262 1187.62 462.946C1196.76 478.131 1207.02 492.66 1214.85 508.644C1217.51 514.079 1218.29 520.081 1220.18 525.749C1222.48 531.12 1223.82 536.452 1222.66 541.707C1223.82 536.465 1222.48 531.12 1220.18 525.749C1219.71 533.425 1220.72 541.153 1219.37 548.804C1219.2 549.693 1219.02 550.581 1218.85 551.47C1218.75 551.857 1218.71 552.256 1218.74 552.655C1217.31 554.497 1215.89 556.339 1213.88 558.915C1209.64 550.994 1205.63 543.394 1201.5 535.847C1181.51 499.37 1158.72 464.865 1131.42 433.321C1112.41 411.374 1091.41 391.629 1069.08 373.262C1047.92 355.861 1025.06 340.791 1001.74 326.43C992.889 320.969 983.788 315.894 974.79 310.652C969.538 307.599 972.112 305.229 975.704 303.684C983.801 300.18 992.258 300.76 1000.66 302.409C1023.63 306.891 1042.05 320.26 1060.65 333.256C1073.61 342.311 1086.36 351.907 1100.53 358.862C1117.73 367.311 1136.34 370.055 1155.51 367.93C1157.44 367.711 1159.5 366.294 1158.81 370.132C1155.91 386.412 1159.82 401.907 1164.53 417.286L1164.56 417.273ZM1315.72 740.768C1308.68 729.485 1305.14 716.927 1302.61 704.112C1298.03 680.85 1294.27 657.344 1288.92 634.327C1282.22 605.541 1265.19 583.838 1235.01 575.375C1234.2 575.144 1233.42 574.757 1232.14 574.255C1241.44 559.559 1243.04 543.201 1243.36 526.457C1243.64 511.478 1238.16 498.185 1231.12 485.73C1220.71 467.312 1209.04 449.602 1197.92 431.583C1195.04 425.271 1191.86 419.102 1187.95 413.357C1188.13 412.327 1187.96 411.464 1186.88 411C1186.36 407.239 1185.8 403.517 1182.86 400.709C1183.18 398.404 1182.24 396.407 1181.28 394.424C1180.98 393.187 1180.54 391.964 1180.4 390.701C1180.04 387.533 1179.18 383.656 1182.74 382.162C1186.09 380.758 1187.11 384.661 1188.86 386.644C1207.24 407.548 1224.04 429.638 1238.6 453.389C1256.86 483.206 1271.96 514.543 1285.15 546.949C1300.4 584.443 1309.15 623.56 1316.14 663.153C1320.53 687.986 1323.35 713.076 1324.23 738.321C1324.3 740.382 1325.68 743.486 1322.48 744.4C1319.42 745.263 1317.36 743.421 1315.7 740.781L1315.72 740.768ZM1322.33 835.604C1322.22 835.346 1322 835.166 1321.7 835.037C1322 835.166 1322.22 835.359 1322.33 835.604ZM1256.35 903.057C1252 916.143 1245.37 927.657 1233.82 935.772C1232.07 936.996 1230.23 938.103 1228.34 939.108C1224.61 941.104 1223.23 939.739 1223.72 935.759C1224.44 929.937 1227.21 924.772 1228.87 919.247C1236.44 894.041 1242.67 868.512 1246.89 842.508C1246.1 842.443 1244.89 842.289 1244.2 841.979C1244.89 842.301 1246.09 842.443 1246.89 842.508C1251.16 822.93 1253.45 803.107 1254.35 783.105C1254.41 781.881 1254.46 780.658 1254.52 779.421C1255.24 758.002 1254.84 736.646 1252.6 715.266C1249.36 684.366 1244.3 653.828 1236.78 623.701C1235.43 618.305 1233.66 613.011 1232.2 607.64C1231.7 605.785 1231.38 603.789 1233.31 602.359C1235.17 600.981 1236.92 601.818 1238.74 602.578C1251.38 607.82 1257.17 618.511 1261.14 630.669C1267.79 651.097 1270.5 672.349 1274.29 693.382C1278.31 715.588 1285.36 736.904 1296.87 756.52C1299.99 761.827 1304.23 766 1309.77 768.679C1311.95 769.735 1313.32 770.263 1310.76 772.479C1291.49 789.055 1279.26 809.985 1273.11 834.509C1267.39 857.32 1261.94 880.195 1256.36 903.044L1256.35 903.057ZM1219.96 857.732C1218.26 862.021 1215.85 865.975 1212.84 869.581C1211.41 875.79 1209.98 881.985 1208.26 889.494C1197.55 874.502 1187.55 860.449 1177.48 846.436C1160.02 822.157 1142.6 797.878 1125 773.702C1122.1 769.735 1121.51 766.708 1124.75 762.458C1133.95 750.415 1142.98 738.218 1150.98 725.299C1163.22 708.285 1175.5 691.296 1187.69 674.243C1194.74 664.377 1201.65 654.407 1209 643.962C1211.95 648.405 1212.36 652.952 1213.32 657.099C1221.36 692.262 1226.43 727.811 1224.99 763.978C1223.95 790.279 1220.73 816.4 1216.9 842.43C1215.56 851.472 1214.19 860.514 1212.84 869.569C1215.85 865.962 1218.26 862.021 1219.96 857.719V857.732ZM251.551 937.176C241.51 914.095 237.378 889.262 230.581 865.228C222.613 837.034 209.638 812.072 188.386 791.734C186.146 789.596 187.356 789.146 189.029 787.626C206.729 771.526 217.619 751.368 221.223 727.952C224.853 704.318 228.123 680.618 232.525 657.099C234.302 650.737 236.194 644.4 237.842 637.998C239.965 629.742 246.286 624.307 251.036 617.802C252.246 616.141 254.293 615.844 256.12 615.278C263.599 612.985 266.714 615.626 264.59 623.032C260.999 635.551 257.987 648.212 255.58 661.002C253.893 669.941 251.409 678.789 251.332 687.999C253.198 687.02 253.996 685.487 254.511 683.8C253.996 685.474 253.198 687.02 251.332 687.999C251.255 689.274 251.164 690.549 251.087 691.824C251.757 692.713 252.207 693.563 252.284 694.336C252.207 693.563 251.757 692.726 251.087 691.824C249.285 693.254 249.723 695.147 249.98 697.015C249.864 698.277 249.749 699.539 249.633 700.801C249.311 701.342 248.77 701.87 248.706 702.45C246.144 725.892 244.715 749.385 245.951 772.981C246.608 801.755 251.023 830.078 256.507 858.234C262.647 889.777 270.383 920.908 281.312 951.176C282.586 954.718 282.792 958.595 279.291 961.146C274.85 964.378 272.597 959.484 269.418 958.054C268.491 956.251 267.358 954.706 265.118 954.461C264.217 952.774 263.097 951.305 261.282 950.532C258.682 947.132 256.082 943.745 253.482 940.344C253.018 940.306 252.465 940.319 251.937 940.319C252.465 940.319 253.018 940.293 253.482 940.344C253.559 938.85 252.722 937.91 251.551 937.176ZM272.494 771.706C270.357 769.207 269.405 767.069 269.637 765.24C269.405 767.069 270.37 769.207 272.494 771.706C272.533 768.228 272.584 764.751 272.623 761.273C272.662 758.298 272.687 755.323 272.726 752.347C271.143 752.128 269.842 751.703 268.877 751.111C269.855 751.703 271.143 752.128 272.726 752.347C273.846 741.541 274.979 730.747 276.098 719.941C276.253 718.28 276.407 716.618 276.562 714.969C279.729 705.709 280.385 695.894 282.869 686.492C282.651 686.182 282.47 685.873 282.316 685.551C282.47 685.861 282.651 686.182 282.869 686.492C285.071 678.326 287.285 670.16 289.486 661.994C298.458 669.168 304.045 679.163 311.086 687.934C326.481 707.087 341.658 726.394 356.86 745.688C365.047 756.07 372.99 766.657 381.318 776.935C383.828 780.039 383.918 782.255 381.485 785.307C378.988 788.437 375.976 791.374 375.41 795.689L375.435 795.83C365.614 806.224 358.534 818.564 351.068 830.619C349.137 831.147 348.725 832.732 348.429 834.393C333.767 855.632 319.118 876.884 304.431 898.111C302.77 900.506 301.599 903.34 298.342 905.478C284.672 861.596 273.743 817.61 272.481 771.706H272.494ZM690.862 518.974C688.867 523.031 686.55 524.306 682.044 524.345C653.326 524.589 624.582 523.778 595.889 525.646C592.233 525.646 588.59 525.646 584.059 525.646C586.466 521.498 588.14 518.613 589.813 515.741C605.685 491.333 621.544 466.913 637.416 442.505C642.088 435.331 646.903 428.247 651.395 420.957C653.3 417.853 655.849 417.556 659.029 417.543C679.83 417.518 700.645 417.376 721.447 417.196C727.806 417.144 734.152 415.534 741.013 416.822C737.937 426.16 732.865 434.352 728.656 442.917C716.169 468.317 703.323 493.536 690.862 518.948V518.974ZM668.811 738.321C669.288 737.471 669.867 736.479 671.283 737.213C673.883 738.553 677.565 748.779 675.943 751.278C668.721 762.304 661.333 773.226 654.008 784.2C653.545 784.895 653.236 785.745 652.167 785.668C649.889 785.565 646.272 779.344 647.546 776.974C654.51 764.029 661.68 751.188 668.811 738.334V738.321ZM662.401 701.716C662.903 701.291 663.045 701.059 663.186 701.072C667.55 701.175 674.565 699.153 675.685 701.986C677.436 706.43 673.6 711.852 671.579 717.584C668.232 711.788 665.297 706.713 662.401 701.716ZM748.981 702.785C741.528 715.536 734.307 728.416 726.879 741.18C718.602 755.413 710.196 769.581 701.083 785.088C697.105 771.964 693.462 759.959 689.845 747.942C689.086 745.431 690.27 743.344 691.519 741.309C699.68 728.017 707.918 714.763 715.925 701.381C717.328 699.024 718.808 698.084 721.486 698.148C729.84 698.354 738.207 698.509 746.561 698.38C750.706 698.328 750.861 699.552 748.981 702.785ZM753.242 897.492C753.86 898.703 754.104 899.579 753.963 900.21H707.184V900.416C707.184 900.416 707.12 900.3 707.081 900.236C698.663 883.685 691.634 866.439 682.16 850.416C680.551 847.685 681.208 846.616 684.323 846.423C696.693 845.65 709.077 844.839 721.434 843.86C724.742 843.602 726.596 844.942 727.999 847.737C736.366 864.339 744.785 880.916 753.229 897.492H753.242ZM747.192 645.185C739.571 657.035 732.118 668.988 724.408 680.773C717.984 690.6 717.856 690.51 703.232 690.33C699.59 690.33 695.947 690.253 692.317 690.356C689.266 690.433 687.683 689.879 689.536 686.414C697.17 672.092 704.713 657.718 712.282 643.343C713.672 640.69 715.873 640.136 718.692 640.188C727.252 640.355 735.826 640.51 744.373 640.252C749.136 640.111 749.535 641.566 747.205 645.185H747.192ZM692.922 794.942C695.805 794.813 697.195 795.856 695.754 798.664C689.42 811.042 682.958 823.368 676.213 836.351C672.532 831.881 669.944 827.708 668 823.11C668.091 821.011 667.228 819.349 665.722 817.958C662.491 811.016 659.26 804.074 655.759 796.552C668.348 796.011 680.628 795.508 692.909 794.942H692.922ZM612.662 635.229L607.423 635.177C575.641 635.1 543.859 635.074 512.076 634.778C510.171 634.765 506.721 637.032 505.923 632.769C505.872 629.343 505.885 625.904 505.743 622.491C505.885 625.917 505.872 629.343 505.923 632.782C514.265 620.662 522.568 608.516 530.96 596.434C543.369 578.57 555.856 560.744 568.754 542.261C577.366 556.39 585.655 570.004 593.958 583.619C603.535 599.319 613.048 615.046 622.715 630.669C626.268 636.414 621.209 634.534 618.969 635.203C618.377 635.731 617.785 636.118 617.193 636.35C617.785 636.118 618.377 635.744 618.969 635.203C616.858 635.203 614.76 635.229 612.649 635.229H612.662ZM635.163 796.809C628.997 804.55 626.963 814.313 622.419 822.853C622.072 823.793 621.737 824.733 621.389 825.686C617.901 829.718 616.446 834.844 613.988 839.416L573.954 769.001C574.405 767.778 575.01 766.502 575.756 765.189C584.819 749.192 593.16 732.795 601.823 716.566C602.596 715.111 603.613 713.784 605.144 711.414C609.843 720.07 614.104 727.862 618.313 735.693C625.792 749.63 633.219 763.591 640.698 777.528C641.638 779.292 642.217 780.954 641.265 782.976C639.141 787.535 637.184 792.185 635.163 796.796V796.809ZM523.971 715.781C535.144 733.774 546.485 751.69 557.941 769.503C559.82 772.414 559.164 774.552 557.761 777.154C541.207 807.886 524.691 838.656 508.176 869.401C503.542 878.031 498.895 886.647 493.849 896.037C483.435 883.582 473.575 871.81 463.727 860.011C444.805 837.33 425.973 814.584 406.934 792.005C404.218 788.772 403.227 786.222 405.75 782.396C432.113 742.339 458.36 702.205 484.658 662.11C485.443 660.912 486.383 659.817 487.413 658.439C493.257 664.634 495.201 673.135 501.83 678.171C502.165 678.532 502.512 678.892 502.847 679.253C502.911 679.588 503.027 679.897 503.207 680.193C503.246 681.636 503.001 683.169 504.61 684.044C510.197 695.147 517.457 705.245 523.983 715.768L523.971 715.781ZM631.43 920.11C614.181 949.18 597.369 977.503 580.133 1006.57C558.404 978.418 537.191 950.919 515.462 922.75C554.182 921.874 592.027 921.011 631.443 920.11H631.43ZM618.763 847.827C620.321 847.582 621.866 847.84 623.32 847.801C637.673 847.35 652.013 847.029 666.366 846.706C668.503 846.655 671.965 845.65 669.61 850.004C661.719 864.623 653.97 879.319 645.01 893.989L618.75 847.827H618.763ZM645.088 693.048C634.429 693.112 623.784 693.06 612.932 693.06C615.545 687.251 618.39 680.902 621.248 674.565C622.87 673.006 624.054 671.203 624.299 668.898C625.097 667.519 625.895 666.128 626.68 664.75C629.203 662.084 629.01 657.524 632.897 655.798C638.252 666.025 643.607 676.265 648.975 686.492C652.219 692.661 652.077 692.983 645.088 693.035V693.048ZM693.153 333.295C677.822 357.02 662.491 380.719 647.16 404.444C600.884 404.496 554.594 404.547 508.318 404.586C507.198 404.805 506.863 405.256 507.906 406.08L507.97 406.26C519.336 433.038 530.394 459.945 542.507 486.4C546.961 496.125 550.681 506.184 555.032 515.96C556.731 519.785 555.354 520.391 551.968 520.416C541.683 520.506 531.411 520.738 521.126 520.919C521.396 521.885 521.872 522.722 522.825 522.928C521.872 522.735 521.396 521.898 521.126 520.932C516.466 520.957 511.819 520.983 507.159 521.009C504.816 520.88 502.474 520.622 500.144 520.648C471.078 520.97 441.999 521.318 412.933 521.743C409.818 521.794 405.505 520.197 403.896 522.735C402.352 525.169 406.355 527.616 407.771 530.102C425.973 561.954 444.573 593.562 464.024 624.68C464.629 625.595 465.234 626.496 465.839 627.411L467.087 632.524C466.675 632.498 466.276 632.563 465.89 632.692C420.836 632.795 375.783 631.829 330.755 633.786C318.732 633.683 306.722 633.58 294.699 633.49C302.281 610.525 310.481 587.818 321.165 566.025C337.989 531.712 358.25 499.692 381.781 469.527C406.175 438.255 434.275 410.897 465.375 386.631C488.842 368.316 514.316 353.066 541.258 340.212C584.999 319.346 630.516 304.766 678.698 298.57C691.184 296.96 703.683 296.445 717.727 295.196C709.038 308.656 701.109 320.982 693.153 333.282V333.295ZM395.091 641.218C394.783 640.999 394.409 640.845 394.023 640.716C392.749 640.742 391.976 641.399 391.629 642.455C391.989 641.399 392.749 640.755 394.023 640.716C394.422 640.832 394.795 640.999 395.104 641.218H395.091ZM314.832 926.06C358.559 925.558 402.3 925.069 446.028 924.528C451.563 924.463 457.072 924.36 462.505 922.686C466.907 921.333 471.412 923.059 475.737 923.897C479.638 924.656 476.832 927.336 476.098 928.83C469.366 942.457 462.492 956.019 455.605 969.582C446.774 986.97 437.88 1004.32 429.075 1021.72C426.14 1027.52 426.5 1028.01 433.13 1027.95C475.583 1027.63 518.023 1027.27 560.477 1026.94C561.764 1026.94 563.064 1027.07 564.339 1026.9C570.196 1026.07 570.582 1028.28 568.239 1033.03C556.152 1057.63 544.245 1082.31 532.312 1106.99C531.694 1108.26 530.368 1109.38 531.089 1111.31C537.808 1111.31 544.618 1111.51 551.402 1111.28C581.819 1110.23 612.224 1109.14 642.629 1107.85C646.697 1107.68 649.207 1108.8 651.678 1112.16C674.244 1142.84 696.989 1173.38 719.735 1203.93C725.579 1211.79 731.681 1219.45 737.538 1227.3C738.876 1229.09 740.897 1230.61 740.884 1233.57C726.467 1234.87 712.205 1233.52 698.019 1232.44C681.8 1231.2 665.555 1229.62 649.554 1226.5C619.664 1220.68 590.586 1212.18 562.884 1199.4C517.2 1178.33 474.386 1152.4 435.176 1120.92C416.151 1105.65 399.661 1087.52 384.446 1068.33C353.513 1029.31 329.069 986.481 309.567 940.744C308.898 939.172 308.241 937.575 307.649 935.978C305.255 929.478 307.653 926.181 314.845 926.086L314.832 926.06ZM652.888 1094.8C647.855 1094.99 644.972 1093.19 642.346 1089.39C626.629 1066.67 610.808 1044.02 595.014 1021.35C595.181 1020.95 595.336 1020.55 595.503 1020.14C619.497 1018.6 643.517 1019.66 667.524 1019.26C680.821 1019.04 694.119 1019.29 707.416 1019.13C710.518 1019.09 712.655 1019.9 714.277 1022.69C727.162 1044.69 740.138 1066.62 753.062 1088.59C753.358 1089.11 753.396 1089.77 753.654 1090.78C749.496 1091.22 745.531 1091.89 741.567 1092.02C712.011 1092.96 682.431 1093.64 652.875 1094.8H652.888ZM748.853 1009.16C737.705 1009.3 726.57 1009.77 715.436 1010.27C713.183 1010.37 711.51 1010 710.145 1008.53L655.656 912.717C672.493 912.163 689.33 911.751 706.167 910.965C710.724 910.746 711.394 914.108 712.655 916.761C720.379 933.003 727.922 949.322 735.517 965.628C741.296 978.057 746.922 990.551 752.92 1002.88C755.379 1007.9 753.924 1009.11 748.84 1009.18L748.853 1009.16ZM751.659 549.886C748.904 550.04 748.389 554.42 747.153 557.047C735.439 581.815 723.674 606.558 712.256 631.455C710.57 635.139 708.214 635.165 705.163 635.216C688.468 635.512 671.734 634.74 655.077 636.44C654.742 636.788 654.407 637.109 654.047 637.406C654.394 637.109 654.742 636.788 655.077 636.44C651.022 635.474 647.418 638.23 643.44 637.869C642.616 637.715 641.805 637.56 640.994 637.419C642.603 627.99 648.203 620.249 652.206 611.89C664.113 587.019 676.702 562.47 688.777 537.663C690.708 533.696 692.947 532.086 697.414 532.034C729.106 531.673 760.798 531.081 792.49 530.489C797.395 530.398 802.299 530.025 807.19 529.625C810.589 529.355 812.365 530.54 814.052 533.799C827.722 560.19 841.676 586.427 855.578 612.689C856.453 614.35 856.814 616.411 858.758 617.352C860.315 620.868 861.602 624.539 863.507 627.849C865.297 630.979 865.477 632.421 861.216 632.395C840.427 632.305 819.651 632.228 798.862 632.37C794.357 632.395 793.816 628.776 792.477 626.226C780.39 603.08 768.547 579.806 756.524 556.635C755.211 554.098 754.594 549.693 751.646 549.86L751.659 549.886ZM840.35 301.7C840.569 303.607 842.229 303.04 843.298 303.285C858.616 306.762 873.934 310.188 889.252 313.614C913.247 321.355 937.189 329.135 960.09 339.915C991.357 354.637 1020.87 372.051 1047.25 394.514C1082.87 424.821 1115.52 457.871 1142.11 496.627C1166.91 532.794 1186.57 571.563 1201.8 612.637C1204.73 620.559 1204.55 620.803 1196.17 620.893C1193.39 620.919 1190.62 621.138 1187.84 621.267C1183.61 621.319 1179.37 621.37 1175.14 621.409C1174.82 622.001 1174.49 622.491 1174.17 622.864C1174.49 622.491 1174.82 622.014 1175.14 621.409C1173.33 620.906 1171.55 620.816 1169.78 621.563C1166.37 620.958 1163.01 621.499 1159.64 622.027C1150.73 620.134 1141.71 620.997 1132.81 621.525C1113.1 622.697 1093.38 621.963 1073.69 622.452C1063.42 622.71 1053.14 623.07 1042.87 623.225C1035.26 623.341 1035.51 623.341 1038.97 616.244C1051.75 589.956 1067.39 565.226 1080.99 539.389C1084.77 532.202 1088.78 525.143 1092.65 518.008C1094.32 514.917 1095.35 512.637 1089.88 512.727C1048.54 513.384 1007.18 513.796 965.818 514.35C960.901 514.414 955.97 514.698 951.079 515.213C945.698 515.779 945.492 513.59 947.23 509.378C954.091 492.763 960.81 476.096 967.568 459.442C974.88 441.397 982.089 423.314 989.516 405.307C991.022 401.649 990.52 400.31 986.388 400.58C981.471 400.889 976.541 400.864 971.623 400.98C951.941 401.366 932.259 401.752 912.577 402.152C911.676 402.177 910.762 402.203 909.861 402.229C907.094 402.255 904.262 401.392 901.61 402.899C889.922 401.186 878.182 401.946 866.494 402.706C857.123 403.311 850.416 403.659 843.684 393.071C825.16 363.885 805.929 335.111 787.006 306.144C784.908 302.937 782.514 299.936 780.261 296.832C796.313 297.862 812.455 297.939 828.237 301.584C829.524 301.881 830.773 301.803 831.61 300.515C833.476 300.464 835.343 300.412 837.209 300.361C837.608 300.348 838.007 300.322 838.393 300.361C838.007 300.335 837.608 300.361 837.209 300.361C837.853 301.803 838.599 302.963 840.363 301.675L840.35 301.7ZM812.571 794.04C826.036 793.447 839.307 792.868 853.454 792.25C847.481 805.799 841.792 818.731 835.626 832.732C827.001 819.581 819.818 807.242 812.571 794.04ZM826.628 848.471C818.84 865.627 811.091 882.796 803.316 899.965C803.277 900.056 803.226 900.12 803.187 900.21H758.481C758.288 899.437 758.648 898.317 759.408 896.771C765.793 883.685 771.971 870.496 778.189 857.345C779.283 855.027 781.021 852.67 781.124 850.274C781.458 842.933 786.028 842.25 791.705 842.52C802.402 843.036 813.099 843.615 823.796 843.808C827.915 843.886 828.005 845.444 826.628 848.484V848.471ZM997.909 631.764C997.613 630.837 997.433 629.845 997.394 628.789C967.414 629.047 937.421 628.415 907.441 629.588C898.083 629.948 888.686 629.639 879.109 629.639C889.42 610.731 899.628 592.016 909.823 573.289C916.529 563.127 922.129 552.333 927.767 541.565C931.32 534.778 931.333 534.687 935.632 540.574C956.292 568.897 976.901 597.259 997.548 625.582C998.411 626.767 998.849 627.784 997.381 628.776C997.433 629.832 997.613 630.824 997.896 631.751L997.909 631.764ZM889.87 725.827C894.62 720.418 896.706 713.617 899.55 707.216C900.838 705.837 901.378 706.378 902.228 707.86C913.131 726.729 924.06 745.585 935.143 764.351C936.881 767.301 936.121 769.4 934.538 771.938C926.621 784.573 918.82 797.273 910.981 809.947C907.827 812.819 906.09 816.567 904.468 820.393C901.198 825.029 897.928 829.653 894.286 834.844C886.382 819.04 878.581 803.79 870.986 788.411C867.305 780.954 867.112 775.081 870.986 767.816C876.998 756.52 881.954 744.658 887.373 733.04C888.454 730.722 889.819 728.506 889.87 725.827ZM893.359 685.345C894.903 687.896 894.749 689.209 891.364 689.287C880.692 689.557 870.021 689.866 859.363 690.343C855.514 690.51 855.539 689.171 857.007 686.298C862.516 675.479 867.897 664.595 873.818 652.772C880.679 664.222 886.987 674.796 893.359 685.332V685.345ZM857.11 765.601C860.637 772.419 859.114 778.077 852.54 782.577C844.186 771.976 838.96 759.47 831.519 748.316C830.271 746.448 830.721 744.722 831.713 742.919C833.669 739.39 835.549 735.822 837.788 731.688C844.765 740.047 848.086 750.055 853.557 758.761C854.922 760.925 855.926 763.321 857.11 765.601ZM841.38 703.802C839.796 707.164 838.548 710.68 836.63 715.369C833.077 709.173 832.935 703.48 830.902 698.419C830.103 696.448 830.811 695.662 832.794 695.752C834.068 695.804 835.33 695.855 836.604 695.92C844.817 696.358 844.817 696.461 841.367 703.789L841.38 703.802ZM896.178 841.696C886.858 858.092 876.483 872.93 866.018 889.352C856.569 873.201 847.559 857.796 838.149 841.696H896.178ZM914.869 913.374C939.7 912.987 964.543 912.446 989.374 912.034C990.996 912.008 993.223 911.248 994.176 912.717C995.476 914.726 993.21 916.259 992.206 917.701C973.104 945.161 953.937 972.557 934.679 999.915C933.534 1001.54 932.285 1005.74 929.543 1000.79C914.392 973.485 899.151 946.218 883.962 918.925C883.357 917.83 882.893 916.658 881.362 913.386C893.462 913.386 904.159 913.528 914.843 913.361L914.869 913.374ZM959.395 787.059C958.571 785.552 958.081 783.775 956.987 782.525C947.024 771.255 949.573 761.054 956.949 748.883C976.991 715.781 995.656 681.829 1015.08 647.864C1019.28 650.659 1020.15 655.979 1024.13 658.516C1036.71 677.514 1049.26 696.538 1061.86 715.523C1067.87 724.578 1073.97 733.581 1080.09 742.584C1081.5 744.671 1082.51 747.182 1085.12 748.213C1088.6 756.379 1094.38 763.089 1099.23 770.366C1101.93 774.411 1101.97 777.412 1098.92 781.096C1084.33 798.703 1069.88 816.413 1055.37 834.071C1042.74 849.437 1029.92 864.635 1017.58 880.22C1013.87 884.896 1012.22 884.419 1009.62 879.589C992.966 848.703 976.167 817.894 959.42 787.046L959.395 787.059ZM780.248 296.845C779.978 294.99 781.034 294.281 782.359 294.204C781.034 294.269 779.978 294.99 780.261 296.845H780.248ZM833.219 413.679C838.509 413.345 842.101 414.633 845.422 419.359C869.03 452.925 893.011 486.22 916.864 519.618C917.07 519.914 917.005 520.403 917.096 520.919C915.499 522.413 913.478 521.691 911.689 521.704C889.626 521.859 867.562 521.859 845.499 522.065C836.514 522.155 827.542 522.554 818.57 522.992C815.171 523.16 813.292 522.026 811.593 518.871C794.267 486.696 776.721 454.625 759.228 422.541C758.224 420.699 757.915 418.381 755.636 417.427C755.546 417.093 755.533 416.771 755.623 416.436C781.51 416.152 807.384 415.289 833.232 413.654L833.219 413.679ZM787.65 639.067C790.945 638.732 793.172 639.338 794.897 642.622C802.132 656.442 809.585 670.147 817.102 683.812C819.381 687.96 818.686 689.647 813.768 689.209C811.22 688.977 808.632 689.158 806.071 689.171C794.485 689.239 785.243 684.461 778.343 674.835C770.62 664.106 762.806 653.441 754.645 642.223C766.115 641.141 776.889 640.188 787.65 639.067ZM786.698 696.886C789.092 696.718 789.993 698.251 791.126 699.887C800.407 713.231 809.688 726.574 819.123 739.815C821.44 743.061 820.14 745.881 818.956 748.857C814.708 759.586 810.421 770.315 805.594 782.422C789.311 754.215 773.555 726.935 757.284 698.753C767.762 698.097 777.223 697.556 786.685 696.899L786.698 696.886ZM759.395 1001.78C773.632 972.738 787.972 943.745 802.093 914.636C803.921 910.875 806.071 909.355 810.357 909.355C823.847 909.329 837.351 908.775 850.841 908.492C852.669 908.453 854.613 907.874 856.827 909.381C843.62 933.119 830.567 956.882 817.179 980.466C812.803 988.194 809.778 996.63 804.423 1003.88C802.647 1006.29 801.115 1007.28 798.27 1007.26C785.05 1007.17 771.817 1007.22 758.597 1007.22C757.953 1003.98 758.854 1002.89 759.395 1001.78ZM780.004 1059.74C788.191 1046.18 796.481 1032.67 804.629 1019.07C806.174 1016.48 807.821 1015.09 811.142 1015.02C845.435 1014.3 879.727 1013.37 914.019 1012.5C915.705 1012.46 917.392 1012.5 919.709 1012.5C917.688 1018.95 913.723 1023.02 910.762 1027.68C898.392 1047.2 885.815 1066.57 873.406 1086.06C871.913 1088.4 870.446 1089.84 867.382 1089.87C833.077 1090.05 798.759 1090.37 764.454 1090.63C763.862 1090.63 763.27 1090.44 761.751 1090.16C767.981 1079.77 773.954 1069.74 779.991 1059.74H780.004ZM791.808 1214.56C812.301 1187.13 831.416 1158.73 850.828 1130.53C856.775 1121.9 862.825 1113.35 868.734 1104.69C870.665 1101.86 873.239 1101.32 876.457 1101.28C897.452 1101.02 918.46 1100.58 939.455 1100.21C940.768 1101.33 942.081 1101.28 943.394 1100.19C955.623 1100.16 967.852 1099.98 980.068 1100.19C984.805 1100.26 985.127 1098.69 983.144 1095.03C972.756 1075.8 962.445 1056.54 952.083 1037.29C948.543 1030.71 944.952 1024.15 941.36 1017.55C942.763 1015.49 944.887 1016.4 946.651 1016.38C989.967 1015.92 1033.28 1015.54 1076.6 1015.15C1085.03 1015.07 1084.88 1015.15 1081.09 1007.95C1065.06 977.426 1049.14 946.849 1033.18 916.297C1030.12 910.437 1035.1 912.124 1037.4 912.111C1065.93 911.892 1094.45 911.905 1122.99 911.66C1142.9 911.493 1162.82 911.029 1182.74 910.695C1185.34 910.669 1187.94 910.643 1190.55 910.617C1202.18 911.132 1202.13 911.107 1197.28 923.549C1181.56 963.76 1161.48 1001.72 1137.37 1037.49C1106.94 1082.62 1069.03 1120.07 1023.02 1149.45C988.769 1171.33 953.203 1190.54 915.268 1205.05C873.445 1221.05 830.155 1230.81 785.384 1233.62C783.466 1233.74 781.536 1233.64 778.858 1233.64C783.351 1226.99 787.328 1220.59 791.821 1214.57L791.808 1214.56ZM1182.82 400.683C1181.96 399.666 1180.88 398.7 1180.49 397.554C1180.89 398.687 1181.97 399.653 1182.82 400.683ZM1146.7 343.767C1136.6 345.209 1127.86 340.07 1118.5 337.919C1092.97 325.953 1070.6 309.016 1047.39 293.328C1031.92 282.87 1014.26 277.615 995.695 275.837C981.419 274.459 968.791 280.01 956.691 286.592C952.16 289.052 950.538 287.854 950.165 283.565C948.723 267.002 937.691 256.801 926.686 246.084C908.741 228.606 885.519 225.463 862.761 220.595C842.719 216.306 822.496 212.635 802.814 207.032C793.443 204.366 784.535 198.918 776.824 192.349C775.305 191.048 772.963 189.489 773.864 187.107C774.803 184.621 777.519 184.518 779.914 184.428C793.443 183.964 806.856 185.754 820.205 187.248C845.048 190.03 869.673 194.616 893.835 201.03C944.05 214.348 992.477 232.341 1037.25 259.093C1064.42 275.335 1090.51 293.148 1114.83 313.563C1124.82 321.948 1134.81 330.242 1143.82 339.658C1144.95 340.843 1146.53 341.847 1146.68 343.779L1146.7 343.767ZM816.948 238.24C839.114 244.307 861.989 247.784 884.503 252.614C896.345 255.152 907.274 260.046 917.044 267.246C921.807 270.75 925.115 275.399 926.467 281.298C927.059 283.9 926.055 285.806 924.227 287.558C922.039 289.645 921.022 287.262 919.4 286.644C909.81 282.973 899.808 280.629 889.806 278.439C875.659 275.348 861.255 273.055 847.185 270.041C823.925 265.057 800.51 262.828 777.03 260.922C756.55 259.261 735.929 259.866 715.436 261.914C678.157 265.636 641.483 272.63 605.376 282.561C595.503 285.278 585.527 287.764 576.181 292.13C572.255 293.135 570.144 291.422 569.41 287.622C575.151 270.376 588.114 261.296 604.771 256.543C631.275 248.982 657.947 242.117 684.825 235.961C694.157 233.823 703.361 230.873 712.359 227.576C725.566 222.72 735.53 213.433 744.244 202.627C745.583 200.966 746.51 196.947 750.114 201.184C767.711 221.883 791.924 231.401 816.961 238.253L816.948 238.24ZM717.637 194.719C711.844 199.471 705.086 202.524 698.032 205.01C671.154 214.502 642.964 218.585 615.429 225.347C596.044 230.113 578.46 239.361 563.669 252.563C554.105 261.102 548.892 273.248 545.571 285.819C545.764 286.206 545.944 286.592 546.098 286.978C545.931 286.592 545.764 286.193 545.571 285.819C543.781 290.971 541.052 291.615 536.367 288.653C532.659 286.309 528.36 284.673 523.842 284.132C514.213 280.5 504.289 281.273 494.248 281.466C472.21 281.891 455.283 293.599 437.97 305.088C418.815 317.8 401.18 332.741 380.867 343.715C371.882 346.845 362.897 349.975 353.913 353.105C352.587 353.169 351.248 353.233 349.922 353.298C348.699 353.04 347.463 352.795 346.241 352.538C346.382 352.267 346.356 352.01 346.163 351.778C346.138 350.503 346.112 349.228 346.073 347.94C348.223 347.862 349.536 346.381 350.862 344.99C368.42 326.43 388.565 310.845 408.904 295.634C432.177 278.246 456.957 263.176 482.92 249.961C510.223 236.064 538.053 223.48 567.068 213.768C590.341 205.976 614.348 200.695 638.445 195.968C661.281 191.486 684.4 188.987 707.455 186.063C709.785 185.767 712.166 185.613 714.509 185.741C717.135 185.87 720.713 184.647 721.82 188.06C722.85 191.228 719.683 193.031 717.663 194.693L717.637 194.719ZM176.659 812.162C180.585 815.112 183.648 818.177 186.017 822.08C198.478 842.688 205.647 865.228 210.912 888.541C215.804 910.192 223.759 930.774 234.263 950.301C242.437 965.499 256.12 973.716 272.044 978.959C275.442 980.079 278.634 981.792 282.2 982.539C286.422 983.428 283.577 985.837 282.818 987.279C276.742 998.742 275.043 1011.16 274.103 1023.87C273.292 1034.72 277.154 1044.05 282.213 1053.13C297.068 1079.82 316.042 1103.65 334.128 1128.11C342.16 1138.97 345.854 1151.2 344.825 1165.1C244.303 1068.89 189.441 950.893 176.672 812.162H176.659ZM396.25 1195.16C415.675 1200.61 432.55 1211.29 449.851 1221.14C465.272 1229.93 479.638 1240.78 496.591 1246.62C511.047 1251.59 526.133 1254 541.438 1253.21C549.947 1252.78 557.658 1248.94 563.901 1243.17C567.158 1240.15 568.638 1240.13 569.938 1244.24C578.807 1272.13 601.411 1284.23 626.551 1293.15C647.675 1300.65 670.227 1300.65 691.982 1304.84C705.678 1307.48 719.941 1307.95 732.08 1316.39C735.877 1319.03 738.168 1322.87 741.477 1326.14C605.157 1327.11 485.302 1282.28 379.052 1197.04C385.025 1193.3 390.548 1193.55 396.237 1195.15L396.25 1195.16ZM709.27 1286.17C685.34 1280.09 660.625 1279.18 636.721 1273.51C629.512 1271.8 622.355 1269.8 615.648 1266.21C605.35 1260.68 598.322 1253.36 593.495 1240.41C705.704 1267.51 816.073 1266.94 926.57 1230.83C924.253 1242.82 918.512 1249.77 910.621 1255.24C898.044 1263.94 883.292 1265.87 868.785 1268.64C852.012 1271.85 835.24 1275.08 818.531 1278.66C796.519 1283.38 780.146 1297.01 765.986 1313.54C762.51 1317.6 760.927 1318.05 757.76 1313.5C746.021 1296.66 728.192 1290.98 709.283 1286.17H709.27ZM797.845 1313.26C817.334 1302.69 838.535 1297.95 860.199 1294.56C878.658 1291.67 896.641 1286.87 913.491 1278.57C930.856 1270.02 942.519 1256.34 948.311 1237.95C949.92 1232.86 951.323 1232.31 956.125 1234.59C971.945 1242.07 988.358 1243.41 1005.57 1239.23C1023.63 1234.85 1039.42 1226.4 1054.6 1216.02C1071 1204.8 1086.78 1192.59 1104.26 1182.98C1112.68 1178.34 1121.61 1175.87 1132.77 1177.63C1084.91 1222.43 1031.97 1257.55 972.743 1283.02C913.453 1308.52 851.781 1323.51 785.655 1324.17C789.143 1318.32 793.378 1315.68 797.845 1313.26ZM1165.16 1139.32C1167.07 1122.73 1174.49 1108.64 1184.1 1095.19C1196.25 1078.17 1209.97 1062.11 1219.92 1043.69C1231.21 1022.79 1238.37 1000.67 1229.06 976.692C1227.9 973.717 1226.68 970.522 1224.61 968.217C1220.87 964.069 1223.01 963.142 1226.86 961.48C1243.66 954.242 1259.9 946.153 1270.69 930.349C1272.66 927.451 1273.87 924.309 1275.05 921.102C1280.32 910.72 1282.87 899.437 1285.71 888.283C1291.67 864.906 1295.78 841.065 1303.53 818.139C1306.15 810.372 1309.87 803.172 1315.95 797.44C1317.18 796.268 1318.77 794.877 1320.42 795.418C1322.57 796.126 1321.51 798.368 1321.46 799.913C1321.14 808.453 1320.67 816.992 1320.26 825.532C1320.58 825.995 1320.9 826.459 1321.16 826.91C1320.9 826.459 1320.6 825.995 1320.26 825.532C1318.95 827.58 1319.32 829.859 1319.36 832.1C1319.26 832.963 1319.15 833.826 1319.06 834.689C1318.2 841.168 1317.35 847.647 1316.49 854.112C1316.37 855.182 1316.24 856.251 1316.12 857.32C1314.85 860.398 1313.89 863.541 1314.12 866.941C1315.51 866.864 1316.8 867.147 1317.44 867.868C1316.8 867.147 1315.5 866.864 1314.12 866.941C1312.96 867.559 1312.83 868.525 1313.18 869.646C1312.64 872.595 1312.09 875.558 1311.55 878.507C1313.1 879.1 1314.33 879.602 1315.24 880.091C1314.34 879.602 1313.1 879.1 1311.55 878.507C1309.91 884.02 1307.85 889.43 1307.58 895.251L1304.98 905.555C1303.09 907.797 1302.47 910.45 1302.51 913.309L1300.15 921.089C1301.39 922.415 1300.91 922.995 1299.99 923.381C1300.93 922.995 1301.4 922.415 1300.15 921.089C1298.96 921.604 1298.78 922.557 1299.03 923.703C1298.11 927.129 1297.19 930.556 1296.27 933.982C1296.01 934.703 1295.75 935.437 1295.49 936.158C1291.58 945.87 1287.72 955.607 1283.74 965.306C1270.51 997.635 1254.5 1028.52 1236.17 1058.27C1219.37 1085.52 1200.44 1111.06 1178.63 1134.47C1176.62 1136.62 1175.14 1139.23 1172.72 1141.09C1170.36 1142.91 1168.26 1145.07 1165.69 1147.42C1164.03 1144.6 1164.88 1141.9 1165.17 1139.33L1165.16 1139.32ZM1315.34 902.451C1315.1 902.387 1314.79 902.155 1314.53 902.052C1314.8 902.168 1315.1 902.4 1315.34 902.464V902.451ZM1355.24 874.669C1355.56 874.643 1355.89 874.617 1356.21 874.605C1355.88 874.617 1355.56 874.643 1355.24 874.669ZM1365.35 887.485C1365.35 887.047 1365.38 886.635 1365.49 886.261C1365.38 886.647 1365.34 887.06 1365.35 887.485ZM1248.28 282.458C1245.73 297.347 1249.45 310.716 1255.76 324.485C1263.55 341.474 1270.29 359.403 1268.84 378.813C1268.01 389.838 1263.34 399.808 1258.29 409.493C1257.33 411.348 1255.72 412.881 1255.27 415.045C1256.75 416.951 1256.66 420.841 1255.63 423.932C1256.66 420.828 1256.75 416.951 1255.27 415.045C1251.97 419.063 1250.87 413.486 1248.48 413.486C1248.06 412.649 1247.65 411.825 1247.22 410.987C1231.98 387.147 1215.08 364.671 1194.68 344.874C1186.76 337.185 1178.72 329.199 1171.93 320.789C1158.29 303.851 1139.18 293.844 1124.15 278.928C1123.99 278.787 1123.78 278.709 1123.62 278.568C1115.64 270.827 1112.74 268.135 1125.26 260.665C1139.04 252.434 1154.39 251.932 1169.91 255.358C1183.4 258.333 1195.27 265.404 1207.99 270.35C1218.97 274.614 1229.9 278.568 1241.98 275.876C1247.62 274.614 1249.18 277.112 1248.27 282.445L1248.28 282.458ZM1048.83 107.044C1049.17 107.237 1049.53 107.289 1049.91 107.186C1050.57 108.178 1051.54 108.397 1052.63 108.229C1066.83 116.009 1081 123.84 1095.24 131.542C1103.85 136.192 1112.5 140.726 1120.53 146.406C1127.95 151.648 1135.94 156.066 1143.52 161.076C1158.88 171.213 1172.51 183.732 1187.55 194.165C1200.8 203.361 1211.58 215.224 1224.54 224.613C1230.69 229.07 1235.2 235.626 1241.28 240.43C1243.14 241.898 1244.98 242.993 1247.17 243.676C1248.5 251.301 1243.46 251.391 1238.22 251.236C1236.31 251.185 1234.39 251.159 1232.47 251.12C1232.08 250.618 1231.8 249.845 1231.3 249.665C1212.35 242.774 1195.95 230.268 1176.5 224.626C1166.82 221.818 1156.7 221.445 1146.7 222.218C1138.62 222.849 1130.74 224.626 1124.05 229.894C1120.84 232.419 1116.84 233.101 1113.16 231.092C1109.32 228.992 1110.66 224.884 1110.95 221.715C1112.6 203.773 1106.96 188.42 1097.95 172.913C1091.53 161.862 1082.12 155.241 1073.66 146.844C1067.06 140.301 1059.92 134.118 1053.98 126.88C1051.77 124.188 1049.21 122.088 1046.52 120.014C1047.18 115.674 1044.06 110.651 1048.83 107.057V107.044ZM1024.65 123.453C1029.05 138.639 1037.31 151.39 1049.06 161.797C1058.74 170.375 1067.42 179.997 1074.54 190.584C1081.3 200.631 1085.62 212.223 1084.04 225C1083.36 230.512 1083.94 236.089 1082.76 241.641C1081.82 246.059 1080.41 247.256 1076.41 244.822C1067.09 239.142 1057.7 233.552 1048.32 227.975C1037.86 221.754 1027.19 215.842 1015.93 211.282C1005.63 207.109 996.416 200.837 985.822 197.23C972.215 192.594 959.15 186.205 945.389 182.186C928.282 177.189 912.011 169.203 893.99 167.323C891.312 167.04 887.721 166.898 890.952 162.403C901.456 147.797 914.367 136.424 931.963 131.181C943.291 127.807 954.928 129.43 966.449 129.146C971.598 129.146 976.759 128.863 981.883 129.198C993.996 130.022 1004.5 125.36 1014.69 119.795C1021.17 116.253 1022.62 116.498 1024.65 123.441V123.453ZM771.688 41.0727C780.815 41.7038 789.929 41.6909 799.055 41.2659C805.504 44.2541 812.558 43.0305 819.278 43.7389C846.233 46.5853 872.904 50.7456 899.447 56.2969C926.84 62.0285 953.396 70.4778 979.875 79.1332C988.86 82.0699 997.742 85.7278 1006.66 89.0508C1011.82 90.97 1010.34 93.5331 1007.33 95.8644C1000.96 100.772 993.416 101.068 985.873 100.347C967.247 98.5692 948.492 98.2858 929.994 99.8186C917.379 100.862 905.086 105.782 896.062 116.344C892.38 120.646 887.386 123.956 882.61 127.163C878.246 130.087 871.875 126.609 868.566 119.886C865.271 113.175 863.392 105.666 858.603 99.7799C846.735 85.1997 831.429 75.1275 813.846 69.1254C801.14 64.7848 788.062 61.4747 775.434 56.825C774.507 57.0311 773.593 57.0439 772.692 56.9667C773.606 57.0311 774.52 57.0311 775.434 56.825C772.975 54.5195 770.568 52.1366 768.02 49.9213C765.844 48.0279 763.579 45.9542 764.866 42.9403C766.102 40.0552 769.294 40.8924 771.663 41.0598L771.688 41.0727ZM741.528 65.5576C743.974 62.0672 746.098 60.8951 749.548 64.6045C752.431 67.7086 755.829 70.2331 758.301 73.8524C760.682 77.3429 763.939 80.1636 767.968 81.9411C781.188 87.7886 794.009 94.4089 807.667 99.4579C825.971 106.233 839.191 119.731 847.082 137.66C849.399 142.928 849.85 149.098 851.575 152.781C852.54 158.114 850.442 158.989 847.764 158.345C828.778 153.773 809.224 155.203 789.98 153.013C771.984 150.965 753.59 152.859 735.388 152.189C708.806 151.21 682.868 156.182 656.763 159.672C652.116 160.29 647.392 159.273 642.771 160.831C640.518 161.591 640.196 160.084 640.595 157.792C643.234 142.928 649.529 129.816 658.926 118.121C664.86 110.741 673.265 106.748 681.208 102.15C693.617 94.9499 707.931 91.8973 720.134 84.2595C728.256 79.1718 735.929 73.5175 741.515 65.5448L741.528 65.5576ZM477.861 95.6841C478.17 93.6104 479.87 93.224 481.517 92.6186C498.522 86.3718 514.986 78.7339 532.531 73.9039C550.205 69.0353 567.454 62.6596 585.424 58.8085C612.301 53.0511 639.308 47.8218 666.572 44.3957C683.898 42.219 701.417 41.5364 718.86 40.287C721.331 40.1067 724.562 39.6559 725.553 42.6698C726.48 45.4905 724.601 47.912 722.644 50.0372C716.414 56.7863 708.999 61.3072 700.014 63.7029C681.504 68.636 664.1 76.6602 648.344 87.2605C637.235 94.7309 628.341 105.164 625.406 119.293C623.655 127.742 618.725 133.165 613.563 133.204C611.079 133.32 608.388 132.907 607.384 130.602C604.436 123.866 597.665 121.315 592.658 116.988C580.249 106.271 565.356 101.905 548.905 102.111C533.921 102.292 518.976 102.433 504.083 104.442C495.819 105.55 487.876 104.404 480.912 99.2776C479.599 98.3116 477.514 98.0153 477.861 95.6969V95.6841ZM464.384 130.731C467.28 123.157 470.846 121.006 478.042 125.128C490.927 132.508 504.765 133.268 518.963 132.804C520.637 132.753 522.439 133.049 523.778 131.606C533.213 131.606 542.649 131.619 552.084 131.632C564.802 134.736 576.529 139.695 586.865 148.093C593.121 153.181 597.64 159.621 602.505 165.751C605.556 169.59 602.055 172.05 598.27 172.707C592.607 173.686 586.891 174.677 581.176 174.871C574.598 175.102 569.797 179.134 564.158 181.414C548.197 187.867 531.694 193.031 515.99 200.012C504.559 205.1 491.442 207.393 481.929 215.584C474.862 221.677 465.774 221.986 458.823 227.125C449.014 234.376 436.592 236.939 427.414 245.698C423.334 249.588 415.301 248.248 410.86 255.847C406.934 238.163 405.686 222.295 411.581 206.311C416.37 193.315 425.535 183.693 434.932 174.085C441.947 166.911 449.297 159.865 455.039 151.725C459.377 145.581 461.642 137.905 464.371 130.731H464.384ZM263.677 232.741C283.655 214.412 304.276 196.908 326.082 180.692C356.191 158.294 387.78 138.472 420.965 121.019C426.989 117.851 433.31 115.3 439.193 111.849C441.896 110.264 443.878 111.449 443.415 114.682C441.767 125.939 436.966 135.38 426.912 141.485C417.399 147.269 411.877 157.199 403.471 164.051C392.131 173.299 386.184 186.166 380.867 198.93C377.25 207.612 377.611 217.825 378.924 227.473C379.503 231.723 379.709 235.922 376.092 238.678C372.307 241.576 369.089 238.343 365.536 236.914C344.876 228.645 324.344 227.64 303.53 237.403C297.261 240.34 290.644 242.813 284.182 245.505C275.712 249.034 268.941 255.281 260.549 258.926C256.082 260.858 251.679 261.669 247.007 261.927C243.261 261.386 238.807 261.914 238.511 256.234C246.891 248.403 255.219 240.494 263.677 232.741ZM227.479 350.116C234.495 333.269 241.523 316.435 239.322 297.514C239.052 295.183 238.794 292.852 238.498 290.533C238.047 287.03 239.528 285.227 241.278 285.227C261.334 287.919 277.476 281.904 293.463 273.97C305.589 267.955 317.973 261.721 331.798 260.755C342.533 260.008 353.243 261.167 363.155 266.074C366.798 267.877 370.363 269.887 374.071 271.574C380.739 274.601 381.099 277.112 375.023 281.749C367.081 287.816 359.834 294.835 351.171 299.91C348.236 301.623 346.562 304.328 344.426 306.659C331.193 321.123 316.363 333.939 302.371 347.592C296.295 353.517 289.563 359.609 285.521 367.595C283.256 372.051 279.6 375.439 276.227 379.019C264.822 391.126 256.468 405.488 246.762 418.857C244.805 421.549 241.755 423.417 239.785 426.276C238.434 428.234 237.159 427.577 235.846 425.748C218.752 402.1 216.357 376.842 227.492 350.103L227.479 350.116ZM216.345 467.698C192.672 514.466 173.84 563.088 160.439 613.797C157.208 625.994 153.694 638.114 150.322 650.286C149.446 653.441 148.481 655.721 144.954 652.334C141.877 649.384 138.479 646.757 135.222 644C135.016 644.412 134.669 644.812 134.308 645.031C134.669 644.799 135.016 644.4 135.222 644C130.807 639.866 127.499 634.624 122.363 631.21C121.204 627.488 118.964 624.526 116.029 622.027C109.567 606.339 108.267 589.659 108.499 573.134C108.731 556.674 104.547 541.823 97.2356 527.552C95.176 523.533 95.3433 521.73 100.042 520.713C111.576 518.201 120.174 510.666 128.426 502.964C138.453 493.613 147.631 483.335 157.801 474.138C172.128 461.194 189.261 455.681 208.595 457.381C209.857 457.497 211.144 457.755 212.341 458.154C219.601 460.55 219.781 460.872 216.319 467.698H216.345ZM86.4099 494.051C86.6544 493.02 86.7703 491.977 86.9505 490.934C90.7994 485.692 92.9233 479.535 95.2275 473.636C103.08 453.504 111.666 433.734 122.775 415.212C132.931 398.275 141.427 380.346 153.385 364.439C160.027 355.603 165.331 345.776 171.703 336.708C181.846 322.257 192.119 307.87 204.875 295.479C207.45 292.981 209.471 289.928 211.994 286.837C214.774 290.121 214.877 294.14 214.877 298.03C214.877 306.93 211.234 314.49 207.707 322.63C200.64 338.949 189.776 353.942 191.011 373.687C191.707 384.931 191.719 396.098 194.191 407.188C195.311 412.185 198.529 415.895 200.511 420.326C203.588 427.191 201.67 431.055 194.139 431.583C188.604 431.982 182.992 432.716 177.573 432.652C164.391 432.471 154.209 438.654 144.581 446.266C129.198 458.425 116.519 473.147 106.208 489.762C103.607 493.961 98.407 494.193 96.1929 498.301C96.5405 498.829 97.8921 499.383 98.2396 499.924C97.905 499.383 96.5533 498.829 96.2058 498.301C94.5324 498.507 92.7817 498.482 91.1727 498.945C86.3584 500.349 85.483 498.16 86.4356 494.064L86.4099 494.051ZM38.6144 836.75C38.8847 836.724 39.0778 836.776 39.2323 836.905C39.0778 836.789 38.8718 836.724 38.6144 836.75ZM35.2161 833.981C37.546 832.925 38.8332 831.779 39.3739 830.375C38.8461 831.779 37.5588 832.925 35.2161 833.981ZM38.6788 769.542C38.3698 758.903 38.1639 748.251 37.9193 737.612C38.0351 733.001 38.1639 728.39 38.2926 723.779C38.6916 713.565 39.1035 703.352 39.5026 693.138C42.4633 656.095 48.8223 619.618 57.8587 583.593C56.4428 583.451 55.4001 583.103 55.8892 581.236C59.7639 566.54 65.505 552.372 67.9894 537.276C68.4013 534.803 70.1391 536.503 71.1302 537.585C72.8938 536.31 71.5293 532.395 73.9751 532.614C76.7941 532.871 77.1159 536.04 77.2447 538.616C77.2962 539.711 77.4892 540.689 78.7121 541.076C79.5617 541.359 81.0034 541.552 81.3896 541.9C81.0034 541.552 79.5488 541.359 78.6992 541.076C82.355 554.986 82.4709 569.232 82.5352 583.477C82.7155 598.315 84.9681 612.869 88.9972 627.115C92.1123 638.101 100.042 645.623 108.357 652.888C119.196 662.354 117.999 668.009 105.126 674.59C87.3753 683.671 74.0909 697.079 67.0883 716.167C64.7326 722.581 61.5016 728.687 60.4075 735.526C60.4075 735.526 60.4075 735.526 60.4203 735.526C60.4203 735.526 60.4203 735.526 60.4075 735.526C58.3221 742.649 56.3012 749.784 54.1257 756.868C52.2592 762.909 48.9252 768.061 43.8792 771.951C42.6049 772.942 41.176 774.578 39.4125 773.625C37.9322 772.827 38.7302 770.907 38.6788 769.516V769.542ZM39.863 840.138C39.8115 839.597 39.7987 839.004 39.76 838.476C39.7987 839.017 39.8115 839.597 39.863 840.138ZM108.602 1002.14C110.777 1013.1 112.258 1024.14 108.409 1035.13C107.353 1038.14 106.182 1041.03 103.865 1043.87C84.1057 996.231 64.5009 949.077 53.5851 898.896C52.2849 892.894 49.0411 887.42 48.7965 881.135C48.7836 878.585 49.1569 875.944 48.6807 873.484C44.8962 853.713 43.596 833.646 41.485 813.669C41.3305 812.239 41.0602 810.449 43.5059 810.642C55.606 819.439 62.0809 831.843 66.9209 845.65C71.3105 858.183 77.7853 869.839 84.2087 881.457C91.9836 895.496 105.822 901.614 119.196 908.337C120.728 909.11 122.414 909.535 123.946 910.295C131.142 913.863 132.146 917.907 126.598 923.755C116.969 933.917 108.641 945.097 107.289 959.214C105.924 973.446 105.757 987.885 108.589 1002.14H108.602ZM262.248 1258.67C244.046 1242.78 228.702 1226.05 213.152 1209.51C176.234 1170.21 146.807 1125.71 121.474 1078.3C118.527 1072.79 120.792 1072.7 125.014 1072.92C136.677 1073.51 143.963 1080.89 150.502 1089.41C156.642 1097.39 162.975 1105.26 170.557 1111.92C187.343 1126.67 207.9 1130.85 229.371 1132.19C231.071 1132.3 232.808 1132.01 234.508 1132.1C241.008 1132.45 242.913 1135.25 240.519 1141.41C237.005 1150.47 234.469 1159.67 234.018 1169.45C233.503 1180.33 236.619 1190.13 241.729 1199.49C247.38 1209.82 252.902 1220.23 258.579 1230.53C263.265 1239.05 262.621 1248.16 262.261 1258.67H262.248ZM284.53 1255.13C284.53 1248.92 284.44 1242.69 283.989 1236.51C283.243 1226.1 277.836 1217.51 272.623 1208.89C266.946 1199.49 262.467 1189.57 260.034 1178.83C256.378 1162.72 261.347 1148.45 269.482 1134.82C271.889 1130.79 273.717 1130.63 276.845 1134.29C294.12 1154.46 312.592 1173.52 332.171 1191.44C347.772 1205.72 364.069 1219.18 380.945 1232.04C393.354 1241.49 405.943 1250.66 418.455 1259.98C420.116 1261.21 422.008 1262.01 418.803 1263.9C407.629 1270.49 396.018 1275.68 383.39 1276.58C366.991 1274.94 351.48 1271.95 336.612 1266.22C321.178 1260.27 305.319 1257.43 288.804 1259.46C285.071 1259.92 284.53 1258.3 284.53 1255.16V1255.13ZM484.079 1399.12C454.163 1387.82 425.277 1374.32 397.254 1358.96C363.322 1340.33 332.441 1317.28 302.307 1293.17C297.801 1289.56 293.541 1285.65 288.765 1281.51C297.673 1277.38 306.169 1278.96 314.664 1281.58C328.206 1285.74 341.31 1291.15 354.118 1297.1C368.536 1303.79 382.708 1303.33 397.151 1297.88C398.554 1297.35 399.893 1296.67 401.296 1296.12C416.292 1290.27 421.506 1292.46 422.729 1308.37C424.454 1330.73 436.373 1346.07 452.902 1359.14C461.14 1365.66 470.563 1370.59 478.119 1377.96C482.998 1382.72 488.031 1387.57 489.022 1394.84C489.524 1398.5 489.447 1401.13 484.066 1399.11L484.079 1399.12ZM513.595 1388.21C510.738 1390 509.077 1390.39 508.009 1386.7C502.692 1368.34 488.018 1357.26 475.133 1344.87C468.632 1338.62 462.08 1332.43 456.364 1325.51C448.306 1315.78 446.62 1303.87 446.414 1295.2C446.465 1274.88 446.723 1274.84 461.398 1282.32C485.006 1294.38 509.039 1305.43 533.934 1314.69C562.691 1325.39 591.95 1334.34 621.531 1342.32C631.906 1345.11 631.687 1344.71 625.393 1353.05C610.718 1372.46 590.264 1378.57 567.235 1379.27C557.825 1379.55 548.403 1379.67 538.98 1380.21C529.673 1380.75 521.306 1383.35 513.583 1388.21H513.595ZM745.364 1445.36C744.798 1447.51 739.211 1446.07 735.89 1446.29C733.328 1446.45 730.741 1446.32 728.166 1446.32C667.241 1445.59 607.448 1437.4 549.098 1419.47C540.782 1416.92 532.479 1414.33 524.125 1411.88C519.967 1410.66 520.418 1409.09 523.43 1406.95C527.214 1404.24 531.424 1403.18 536.032 1402.74C551.428 1401.3 566.862 1401.33 582.296 1401.44C592.426 1401.5 602.312 1400.08 612.031 1397.38C617.515 1395.85 622.175 1392.83 625.92 1388.51C628.431 1385.58 630.722 1382.46 633.387 1379.68C639.025 1373.81 643.569 1374.08 647.945 1380.84C653.802 1389.86 660.47 1398.09 668.013 1405.79C681.452 1419.51 698.65 1423.9 716.517 1427.16C720.507 1427.88 724.446 1428.87 728.45 1429.52C732.659 1430.19 736.109 1432.37 739.211 1434.99C742.455 1437.73 746.471 1441.21 745.364 1445.37V1445.36ZM770.465 1424.07C763.9 1431.64 763.231 1431.61 756.718 1423.65C745.892 1410.41 730.895 1406.07 715.152 1402.98C687.232 1397.5 672.364 1379.05 665.156 1352.8C664.113 1349.03 665.323 1348.78 668.387 1349.04C706.425 1352.27 744.54 1353.46 782.694 1352.05C806.006 1351.2 829.254 1348.99 852.36 1345.82C858.873 1344.93 859.144 1347.41 858.719 1350.12C857.908 1365.91 850.97 1375.99 839.668 1383.17C831.172 1388.58 822.187 1393.48 812.52 1396.17C795.322 1400.96 781.935 1410.8 770.452 1424.07H770.465ZM884.103 1431.61C854.561 1437.76 824.633 1441.26 794.601 1443.89C793.533 1443.98 792.464 1444.08 791.409 1444.25C788.5 1444.73 784.767 1446.47 783.055 1443.5C781.021 1439.99 784.471 1436.97 786.685 1434.68C791.975 1429.22 799.351 1427.91 806.354 1425.96C825.843 1420.55 844.482 1413.42 859.993 1399.79C866.121 1394.4 869.764 1387.4 873.136 1380.2C874.037 1378.27 874.642 1376.2 875.53 1374.26C878.62 1367.5 881.207 1366.65 886.24 1371.85C901.481 1387.64 919.992 1393.66 941.643 1392.79C954.722 1392.27 967.723 1391.35 980.75 1390.33C987.984 1389.77 995.27 1390.05 1001.37 1396.52C962.857 1412.06 923.905 1423.31 884.091 1431.59L884.103 1431.61ZM1014.59 1371.14C1013.75 1374.27 1012.61 1376.46 1008.89 1374.22C995.759 1366.3 981.059 1366.73 963.462 1366.17C954.207 1365.3 941.888 1368.86 929.518 1365.54C916.413 1362.02 905.703 1355.09 897.002 1344.91C892.625 1339.78 893.681 1337.82 900.22 1335.97C913.375 1332.26 926.171 1327.43 939.352 1323.72C961.75 1317.42 983.234 1308.15 1004.2 1298.37C1024.76 1288.79 1045.25 1278.6 1064.21 1265.82C1069.63 1262.17 1070.5 1262.78 1070.77 1269.38C1071.33 1282.9 1072.2 1296.61 1064.14 1308.55C1057.17 1318.85 1049.03 1328.28 1039.49 1336.3C1028.15 1345.83 1018.53 1356.42 1014.59 1371.14ZM1217.55 1262.85C1210.47 1269.06 1203.39 1275.28 1196.21 1281.37C1173.63 1300.5 1149.75 1317.86 1124.77 1333.7C1097.25 1351.15 1068.45 1366.25 1039.1 1380.33C1037.93 1380.89 1036.47 1382.5 1035.11 1381.1C1033.96 1379.93 1034.66 1378.14 1035.14 1376.8C1037.39 1370.36 1041.6 1365.32 1046.9 1361.12C1054.95 1354.76 1063.48 1348.93 1070.88 1341.88C1085.96 1327.53 1098.71 1311.69 1097.64 1288.99C1097.5 1287.5 1097.32 1286.02 1097.22 1284.51C1096.74 1277.45 1100.27 1274.66 1106.51 1277.58C1127.97 1287.62 1149.04 1284.95 1169.77 1275.62C1181.17 1270.5 1192.26 1264.64 1203.39 1258.93C1206.96 1257.1 1210.78 1256.86 1214.55 1256.21C1216.51 1255.88 1218.72 1256.01 1219.7 1257.95C1220.78 1260.08 1218.99 1261.59 1217.56 1262.85H1217.55ZM1233.78 1192.14C1229.32 1202.97 1225.37 1213.48 1226.12 1225.44C1226.67 1234.01 1226.28 1234.04 1217.64 1234.11C1216.57 1234.11 1215.49 1234.11 1214.85 1234.11C1198.37 1233.33 1184.41 1240 1170.67 1246.93C1147.42 1258.65 1124.52 1259.72 1101.58 1246.28C1097.85 1244.09 1099.12 1241.65 1101.64 1240.59C1112.22 1236.13 1120.06 1227.7 1129.66 1221.82C1135.88 1218.01 1141.24 1212.67 1146.5 1207.49C1147.95 1206.05 1149.29 1204.37 1150.99 1203.16C1164.29 1193.71 1174.21 1180.74 1186.03 1169.76C1203.47 1153.56 1216.81 1134.09 1231.3 1115.53C1235.23 1110.49 1237.53 1110.8 1240.8 1116.23C1249.14 1130.13 1250.88 1144.71 1247.11 1160.55C1244.39 1171.93 1238.13 1181.59 1233.78 1192.12V1192.14ZM1377.4 1054.19C1361.31 1086.69 1341.9 1117.12 1321.07 1146.75C1305.68 1168.64 1288.94 1189.39 1271.02 1209.22C1264.78 1216.12 1258.34 1222.84 1252.05 1229.71C1251.44 1230.36 1250.99 1231.07 1250.05 1230.97C1248.45 1230.8 1248.93 1229.48 1248.83 1228.52C1248.11 1222.47 1248.29 1216.66 1251.63 1211.15C1261.49 1194.84 1270.17 1177.9 1275.68 1159.61C1279.58 1146.66 1278.35 1133.82 1271.8 1121.72C1271.09 1120.42 1270.39 1119.08 1269.98 1117.68C1267.36 1108.83 1269.25 1106.37 1278.5 1106.42C1280.01 1106.42 1281.5 1106.42 1283.01 1106.42C1310.32 1106.79 1329.52 1092.23 1345.9 1072.3C1352.82 1063.89 1360.5 1056.16 1368.58 1048.85C1369.06 1048.42 1369.52 1047.84 1370.09 1047.69C1373.08 1046.82 1376.5 1044.14 1379.1 1046.64C1381.43 1048.88 1378.6 1051.81 1377.43 1054.18L1377.4 1054.19ZM1378.39 1022.76C1378.47 1023.2 1378.52 1023.72 1378.68 1024.1C1378.51 1023.72 1378.47 1023.21 1378.39 1022.76ZM1380.49 1023.92C1380.65 1023.55 1380.77 1023.1 1380.93 1022.76C1380.77 1023.1 1380.63 1023.55 1380.49 1023.92ZM1385.41 924.09V924.064C1385.37 924.038 1385.34 924.012 1385.29 923.987C1384.52 923.665 1384.61 924.103 1384.74 924.45C1382.68 924.399 1381.33 925.429 1381.38 926.73C1381.28 925.249 1382.83 923.961 1384.8 923.587C1385.05 920.831 1384.83 918.178 1383.25 915.975C1384.78 918.1 1385.13 920.741 1385.38 924.051C1385.43 924.09 1385.49 924.141 1385.52 924.206C1385.49 924.154 1385.43 924.115 1385.38 924.077L1385.41 924.09ZM1449.17 794.967C1447.57 810.41 1445.88 825.841 1444.22 841.271C1444.08 841.645 1444.06 842.018 1444.15 842.404C1444.03 843.68 1443.91 844.942 1443.8 846.217C1440.1 866.542 1436.32 886.854 1431.17 906.856C1427.28 921.952 1422.96 936.918 1418.83 951.936C1415.27 962.266 1411.72 972.596 1408.18 982.926C1408.06 983.364 1407.95 983.802 1407.83 984.24C1407.6 984.471 1407.48 984.755 1407.48 985.09C1404.86 991.942 1402.41 998.884 1399.5 1005.61C1398.2 1008.61 1396.29 1012.6 1392.58 1007.28C1390.62 1001.64 1389.28 995.999 1390.35 989.881C1392.45 977.903 1394.14 965.86 1393.88 953.636C1393.71 945.857 1393.16 938.206 1392.01 930.427C1390.8 922.222 1387.85 916.001 1383.34 909.342C1378.93 902.851 1369.74 898.742 1371.4 888.695C1373.54 883.801 1380.14 886.119 1382.6 881.727C1382.33 880.736 1382 879.988 1381.6 879.46C1382 879.988 1382.34 880.748 1382.6 881.74C1383.89 881.573 1385.34 881.933 1386.18 880.491C1386.22 880.233 1386.23 879.989 1386.25 879.731C1386.25 879.976 1386.22 880.233 1386.18 880.491C1389.14 879.164 1391.79 877.374 1394.1 875.081C1395.09 875.236 1395.93 875.042 1396.47 874.102C1396.39 873.007 1396.36 871.951 1396.47 870.985C1396.38 871.951 1396.39 873.007 1396.47 874.102C1399.57 872.08 1402.63 870.019 1403.01 865.859C1405.5 866.696 1406.67 865.305 1407.39 863.18C1417.46 851.421 1422.43 837.098 1427.62 822.891C1430.96 813.708 1433.37 804.125 1438.61 795.714C1439.51 794.272 1440.58 792.945 1441.66 791.631C1443.19 789.777 1445.37 789.274 1447.45 789.983C1449.77 790.781 1449.36 793.138 1449.17 794.967ZM1450.31 747.968C1448.54 748.676 1446.86 747.492 1445.6 746.5C1439.74 741.876 1436.99 735.152 1435.51 728.3C1432.56 714.686 1428.78 701.252 1423 688.758C1417.45 676.754 1409.04 666.373 1397.34 659.083C1392.19 655.876 1386.9 653.519 1381.13 651.947C1378.3 651.174 1376.05 649.745 1375.81 646.344C1375.57 643.176 1377.14 641.463 1379.63 639.582C1387.19 633.864 1392.46 626.123 1397.43 618.176C1409.35 599.1 1406.64 577.9 1406.08 557.112C1405.81 547.065 1404.38 537.032 1406.98 527.114C1407.74 524.177 1408.99 521.073 1412.42 520.609C1416.48 520.056 1417.27 523.907 1418.04 526.496C1422.51 541.424 1426.69 556.442 1430.9 571.447C1436.5 591.437 1439.85 611.903 1443.14 632.344C1445.61 647.697 1447.34 663.179 1448.92 678.648C1449.73 686.504 1451.23 694.361 1450.18 701.883C1451.1 716.038 1452.08 729.73 1451.61 743.46C1451.56 745.031 1452.47 747.131 1450.34 747.981L1450.31 747.968Z" fill="#E9D0AA" fill-opacity="0.3"/>
</svg>
