<svg width="2047" height="2037" viewBox="0 0 2047 2037" fill="none" xmlns="http://www.w3.org/2000/svg">
<circle cx="1023" cy="1023" r="1013" stroke="#DDC299" stroke-width="2"/>
<path fill-rule="evenodd" clip-rule="evenodd" d="M1317.35 2004.02C1317.33 1997.4 1311.97 1992.04 1305.36 1992.04C1311.98 1992.04 1317.35 1986.66 1317.35 1980.03C1317.38 1986.64 1322.74 1992 1329.35 1992C1322.72 1992 1317.35 1997.38 1317.35 2004.02Z" fill="#DDC299"/>
<path fill-rule="evenodd" clip-rule="evenodd" d="M1280.37 2015.01C1280.35 2008.4 1274.99 2003.04 1268.38 2003.04C1275 2003.04 1280.37 1997.66 1280.37 1991.02C1280.4 1997.64 1285.76 2003 1292.37 2003C1285.74 2003 1280.37 2008.38 1280.37 2015.01Z" fill="#DDC299"/>
<path fill-rule="evenodd" clip-rule="evenodd" d="M1455.99 1953.99C1455.97 1947.37 1450.61 1942.02 1444 1942.02C1450.62 1942.02 1455.99 1936.64 1455.99 1930C1456.02 1936.62 1461.38 1941.97 1467.99 1941.97C1461.36 1941.97 1455.99 1947.35 1455.99 1953.99Z" fill="#DDC299"/>
<path fill-rule="evenodd" clip-rule="evenodd" d="M741.639 2009.02C741.615 2002.4 736.254 1997.04 729.645 1997.04C736.269 1997.04 741.639 1991.66 741.639 1985.03C741.662 1991.64 747.023 1997 753.633 1997C747.008 1997 741.639 2002.38 741.639 2009.02Z" fill="#DDC299"/>
<path fill-rule="evenodd" clip-rule="evenodd" d="M1702.99 1785.99C1702.97 1779.37 1697.61 1774.02 1691 1774.02C1697.62 1774.02 1702.99 1768.64 1702.99 1762C1703.02 1768.62 1708.38 1773.97 1714.99 1773.97C1708.36 1773.97 1702.99 1779.35 1702.99 1785.99Z" fill="#DDC299"/>
<path fill-rule="evenodd" clip-rule="evenodd" d="M1828.99 1648.99C1828.97 1642.37 1823.61 1637.02 1817 1637.02C1823.62 1637.02 1828.99 1631.64 1828.99 1625C1829.02 1631.62 1834.38 1636.97 1840.99 1636.97C1834.36 1636.97 1828.99 1642.35 1828.99 1648.99Z" fill="#DDC299"/>
<path fill-rule="evenodd" clip-rule="evenodd" d="M1975.99 1376.99C1975.97 1370.37 1970.61 1365.02 1964 1365.02C1970.62 1365.02 1975.99 1359.64 1975.99 1353C1976.02 1359.62 1981.38 1364.97 1987.99 1364.97C1981.36 1364.97 1975.99 1370.35 1975.99 1376.99Z" fill="#DDC299"/>
<path fill-rule="evenodd" clip-rule="evenodd" d="M2034.99 1046.99C2034.97 1040.37 2029.61 1035.02 2023 1035.02C2029.62 1035.02 2034.99 1029.64 2034.99 1023C2035.02 1029.62 2040.38 1034.97 2046.99 1034.97C2040.36 1034.97 2034.99 1040.35 2034.99 1046.99Z" fill="#DDC299"/>
<path fill-rule="evenodd" clip-rule="evenodd" d="M2029.99 933.988C2029.97 927.372 2024.61 922.016 2018 922.016C2024.62 922.016 2029.99 916.636 2029.99 910C2030.02 916.616 2035.38 921.972 2041.99 921.972C2035.36 921.972 2029.99 927.352 2029.99 933.988Z" fill="#DDC299"/>
<path fill-rule="evenodd" clip-rule="evenodd" d="M513.994 160.988C513.97 154.372 508.609 149.016 502 149.016C508.624 149.016 513.994 143.636 513.994 137C514.018 143.616 519.379 148.972 525.988 148.972C519.364 148.972 513.994 154.352 513.994 160.988Z" fill="#DDC299"/>
<path fill-rule="evenodd" clip-rule="evenodd" d="M299.994 323.988C299.97 317.372 294.609 312.016 288 312.016C294.624 312.016 299.994 306.636 299.994 300C300.018 306.616 305.379 311.972 311.988 311.972C305.364 311.972 299.994 317.352 299.994 323.988Z" fill="#DDC299"/>
<path fill-rule="evenodd" clip-rule="evenodd" d="M636.994 97.9882C636.97 91.3722 631.609 86.0163 625 86.0163C631.624 86.0163 636.994 80.6364 636.994 74C637.018 80.616 642.379 85.9719 648.988 85.9719C642.364 85.9719 636.994 91.3518 636.994 97.9882Z" fill="#DDC299"/>
<path fill-rule="evenodd" clip-rule="evenodd" d="M1988.99 726.988C1988.97 720.372 1983.61 715.016 1977 715.016C1983.62 715.016 1988.99 709.636 1988.99 703C1989.02 709.616 1994.38 714.972 2000.99 714.972C1994.36 714.972 1988.99 720.352 1988.99 726.988Z" fill="#DDC299"/>
<path fill-rule="evenodd" clip-rule="evenodd" d="M1626.99 222.988C1626.97 216.372 1621.61 211.016 1615 211.016C1621.62 211.016 1626.99 205.636 1626.99 199C1627.02 205.616 1632.38 210.972 1638.99 210.972C1632.36 210.972 1626.99 216.352 1626.99 222.988Z" fill="#DDC299"/>
<path fill-rule="evenodd" clip-rule="evenodd" d="M1235.99 42.9882C1235.97 36.3722 1230.61 31.0163 1224 31.0163C1230.62 31.0163 1235.99 25.6364 1235.99 19C1236.02 25.616 1241.38 30.9719 1247.99 30.9719C1241.36 30.9719 1235.99 36.3518 1235.99 42.9882Z" fill="#DDC299"/>
<path fill-rule="evenodd" clip-rule="evenodd" d="M812.994 42.9882C812.97 36.3722 807.609 31.0163 801 31.0163C807.624 31.0163 812.994 25.6364 812.994 19C813.018 25.616 818.379 30.9719 824.988 30.9719C818.364 30.9719 812.994 36.3518 812.994 42.9882Z" fill="#DDC299"/>
<path fill-rule="evenodd" clip-rule="evenodd" d="M1896.99 522.988C1896.97 516.372 1891.61 511.016 1885 511.016C1891.62 511.016 1896.99 505.636 1896.99 499C1897.02 505.616 1902.38 510.972 1908.99 510.972C1902.36 510.972 1896.99 516.352 1896.99 522.988Z" fill="#DDC299"/>
<path fill-rule="evenodd" clip-rule="evenodd" d="M1176.99 30.9882C1176.97 24.3722 1171.61 19.0163 1165 19.0163C1171.62 19.0163 1176.99 13.6364 1176.99 7C1177.02 13.616 1182.38 18.9719 1188.99 18.9719C1182.36 18.9719 1176.99 24.3518 1176.99 30.9882Z" fill="#DDC299"/>
<path fill-rule="evenodd" clip-rule="evenodd" d="M1807.99 397.988C1807.97 391.372 1802.61 386.016 1796 386.016C1802.62 386.016 1807.99 380.636 1807.99 374C1808.02 380.616 1813.38 385.972 1819.99 385.972C1813.36 385.972 1807.99 391.352 1807.99 397.988Z" fill="#DDC299"/>
<path fill-rule="evenodd" clip-rule="evenodd" d="M942.994 23.9882C942.97 17.3722 937.609 12.0163 931 12.0163C937.624 12.0163 942.994 6.63636 942.994 0C943.018 6.616 948.379 11.9719 954.988 11.9719C948.364 11.9719 942.994 17.3518 942.994 23.9882Z" fill="#DDC299"/>
<path fill-rule="evenodd" clip-rule="evenodd" d="M1707.99 288.988C1707.97 282.372 1702.61 277.016 1696 277.016C1702.62 277.016 1707.99 271.636 1707.99 265C1708.02 271.616 1713.38 276.972 1719.99 276.972C1713.36 276.972 1707.99 282.352 1707.99 288.988Z" fill="#DDC299"/>
<path fill-rule="evenodd" clip-rule="evenodd" d="M1560.99 172.988C1560.97 166.372 1555.61 161.016 1549 161.016C1555.62 161.016 1560.99 155.636 1560.99 149C1561.02 155.616 1566.38 160.972 1572.99 160.972C1566.36 160.972 1560.99 166.352 1560.99 172.988Z" fill="#DDC299"/>
<path fill-rule="evenodd" clip-rule="evenodd" d="M212.994 421.988C212.97 415.372 207.609 410.016 201 410.016C207.624 410.016 212.994 404.636 212.994 398C213.018 404.616 218.379 409.972 224.988 409.972C218.364 409.972 212.994 415.352 212.994 421.988Z" fill="#DDC299"/>
<path fill-rule="evenodd" clip-rule="evenodd" d="M120.994 569.988C120.97 563.372 115.609 558.016 109 558.016C115.624 558.016 120.994 552.636 120.994 546C121.018 552.616 126.379 557.972 132.988 557.972C126.364 557.972 120.994 563.352 120.994 569.988Z" fill="#DDC299"/>
<path fill-rule="evenodd" clip-rule="evenodd" d="M11.9941 971.988C11.9701 965.372 6.6094 960.016 0 960.016C6.62415 960.016 11.9941 954.636 11.9941 948C12.018 954.616 17.3788 959.972 23.9882 959.972C17.3639 959.972 11.9941 965.352 11.9941 971.988Z" fill="#DDC299"/>
<path fill-rule="evenodd" clip-rule="evenodd" d="M16.9941 1153.99C16.9701 1147.37 11.6094 1142.02 5 1142.02C11.6241 1142.02 16.9941 1136.64 16.9941 1130C17.018 1136.62 22.3788 1141.97 28.9882 1141.97C22.3639 1141.97 16.9941 1147.35 16.9941 1153.99Z" fill="#DDC299"/>
<path fill-rule="evenodd" clip-rule="evenodd" d="M58.9941 1350.99C58.9701 1344.37 53.6094 1339.02 47 1339.02C53.6241 1339.02 58.9941 1333.64 58.9941 1327C59.018 1333.62 64.3788 1338.97 70.9882 1338.97C64.3639 1338.97 58.9941 1344.35 58.9941 1350.99Z" fill="#DDC299"/>
<path fill-rule="evenodd" clip-rule="evenodd" d="M283.994 1725.99C283.97 1719.37 278.609 1714.02 272 1714.02C278.624 1714.02 283.994 1708.64 283.994 1702C284.018 1708.62 289.379 1713.97 295.988 1713.97C289.364 1713.97 283.994 1719.35 283.994 1725.99Z" fill="#DDC299"/>
<path fill-rule="evenodd" clip-rule="evenodd" d="M119.994 1491.99C119.97 1485.37 114.609 1480.02 108 1480.02C114.624 1480.02 119.994 1474.64 119.994 1468C120.018 1474.62 125.379 1479.97 131.988 1479.97C125.364 1479.97 119.994 1485.35 119.994 1491.99Z" fill="#DDC299"/>
</svg>
