<svg width="629" height="624" viewBox="0 0 629 624" fill="none" xmlns="http://www.w3.org/2000/svg">
<path fill-rule="evenodd" clip-rule="evenodd" d="M501.845 623.811C501.83 619.57 498.448 616.136 494.277 616.136C498.457 616.136 501.845 612.688 501.845 608.434C501.86 612.675 505.243 616.108 509.413 616.108C505.234 616.108 501.845 619.557 501.845 623.811Z" fill="#DDC299"/>
<path fill-rule="evenodd" clip-rule="evenodd" d="M627.253 223.198C626.528 224.285 625.476 225.18 624.17 225.716C620.775 227.109 616.953 225.547 615.633 222.228C614.824 220.195 615.141 217.974 616.289 216.237C612.465 217.989 610.608 222.392 612.135 226.231C613.701 230.17 618.236 232.023 622.264 230.369C625.304 229.122 627.186 226.233 627.253 223.198Z" fill="#DDC299"/>
<path d="M248.628 546.5C452.5 546.5 617.757 378.599 617.757 171.5C617.757 -35.5993 452.5 -203.5 248.628 -203.5C44.7569 -203.5 -120.5 -35.5993 -120.5 171.5C-120.5 378.599 44.7569 546.5 248.628 546.5Z" stroke="#DDC299"/>
</svg>
