<svg width="2324" height="2324" viewBox="0 0 2324 2324" fill="none" xmlns="http://www.w3.org/2000/svg">
<path opacity="0.5" d="M1161.85 1231.73C1149.96 1245.61 1119.19 1228.35 1127.07 1196.1C1131.61 1165.14 1182.67 1134.74 1232.88 1162.31C1283.06 1185.45 1313.01 1270.4 1266.18 1338.62C1224.66 1407.81 1106.22 1437.2 1019.78 1370.59C931.565 1310.42 902.036 1157.87 987.962 1053.59C1066.31 946.248 1252.52 917.806 1374.95 1023.45C1501.47 1120.71 1530.1 1340.76 1405.29 1481.13C1289.98 1626.55 1036.28 1654.3 877.716 1509.45C712.903 1375.13 685.099 1087.45 848.854 911.079C1001.16 727.464 1322.23 700.661 1517.01 884.591C1719.85 1055.92 1747.26 1411.23 1544.4 1623.65C1355.24 1845.4 966.469 1871.33 735.652 1648.31C494.499 1439.9 467.989 1017.06 709.745 768.565C935.88 508.769 1392.09 483.546 1659.08 745.733C1938.45 991.135 1964.23 1481.7 1683.51 1766.16C1420.43 2064.23 896.698 2088.35 593.583 1787.17C276.103 1504.71 250.837 946.584 570.636 626.051C870.645 289.938 1461.93 266.538 1801.14 606.875" stroke="#DDC299" stroke-width="3" stroke-linecap="round"/>
<path fill-rule="evenodd" clip-rule="evenodd" d="M1416.47 613.398C1416.44 603.738 1408.62 595.919 1398.97 595.919C1408.64 595.919 1416.47 588.064 1416.47 578.375C1416.51 588.034 1424.33 595.854 1433.97 595.854C1424.31 595.854 1416.47 603.709 1416.47 613.398Z" fill="#DDC299"/>
<path fill-rule="evenodd" clip-rule="evenodd" d="M742.484 1161.75C742.449 1152.09 734.628 1144.27 724.984 1144.27C734.649 1144.27 742.484 1136.42 742.484 1126.73C742.519 1136.39 750.341 1144.21 759.984 1144.21C750.319 1144.21 742.484 1152.06 742.484 1161.75Z" fill="#DDC299"/>
<path fill-rule="evenodd" clip-rule="evenodd" d="M511.488 705.456C511.453 695.797 503.632 687.977 493.988 687.977C503.653 687.977 511.488 680.123 511.488 670.434C511.523 680.093 519.345 687.913 528.988 687.913C519.323 687.913 511.488 695.767 511.488 705.456Z" fill="#DDC299"/>
<path fill-rule="evenodd" clip-rule="evenodd" d="M1018 1587.19C1015.52 1588.85 1012.5 1589.83 1009.24 1589.83C1000.78 1589.83 993.913 1583.22 993.913 1575.07C993.913 1570.08 996.487 1565.67 1000.43 1563C990.735 1563.38 983 1571.07 983 1580.49C983 1590.16 991.143 1598 1001.19 1598C1008.77 1598 1015.27 1593.53 1018 1587.19Z" fill="#DDC299"/>
</svg>
