<svg width="50" height="50" viewBox="0 0 50 50" fill="none" xmlns="http://www.w3.org/2000/svg">
<path d="M27.1403 4.16797C29.484 4.17422 30.6736 4.18672 31.7007 4.21589L32.1048 4.23047C32.5715 4.24714 33.0319 4.26797 33.5882 4.29297C35.8048 4.39714 37.3173 4.74714 38.6444 5.26172C40.0194 5.79089 41.1778 6.50755 42.3361 7.6638C43.3955 8.70525 44.2152 9.96503 44.7382 11.3555C45.2528 12.6826 45.6028 14.1951 45.7069 16.4138C45.7319 16.968 45.7528 17.4284 45.7694 17.8971L45.7819 18.3013C45.8132 19.3263 45.8257 20.5159 45.8298 22.8596L45.8319 24.4138V27.143C45.837 28.6626 45.8211 30.1821 45.784 31.7013L45.7715 32.1055C45.7548 32.5742 45.734 33.0346 45.709 33.5888C45.6048 35.8076 45.2507 37.318 44.7382 38.6471C44.2167 40.0383 43.3968 41.2984 42.3361 42.3388C41.2944 43.3978 40.0347 44.2175 38.6444 44.7409C37.3173 45.2555 35.8048 45.6055 33.5882 45.7096C33.0938 45.7329 32.5994 45.7537 32.1048 45.7721L31.7007 45.7846C30.6736 45.8138 29.484 45.8284 27.1403 45.8326L25.5861 45.8346H22.859C21.3387 45.8399 19.8184 45.8239 18.2986 45.7867L17.8944 45.7742C17.3999 45.7555 16.9054 45.734 16.4111 45.7096C14.1944 45.6055 12.6819 45.2555 11.3528 44.7409C9.96249 44.2187 8.70322 43.3989 7.66318 42.3388C6.60286 41.2977 5.7824 40.0379 5.25901 38.6471C4.74443 37.32 4.39443 35.8076 4.29026 33.5888C4.26705 33.0945 4.24622 32.6 4.22776 32.1055L4.21735 31.7013C4.17896 30.1822 4.16159 28.6626 4.16526 27.143V22.8596C4.15945 21.3401 4.17473 19.8205 4.2111 18.3013L4.22568 17.8971C4.24235 17.4284 4.26318 16.968 4.28818 16.4138C4.39235 14.1951 4.74235 12.6846 5.25693 11.3555C5.78009 9.9636 6.60218 8.70343 7.66526 7.6638C8.70504 6.60437 9.96348 5.78461 11.3528 5.26172C12.6819 4.74714 14.1923 4.39714 16.4111 4.29297C16.9653 4.26797 17.4278 4.24714 17.8944 4.23047L18.2986 4.21797C19.8177 4.18095 21.3373 4.16498 22.8569 4.17005L27.1403 4.16797ZM24.9986 14.5846C22.2359 14.5846 19.5864 15.6821 17.6329 17.6356C15.6794 19.5891 14.5819 22.2386 14.5819 25.0013C14.5819 27.764 15.6794 30.4135 17.6329 32.367C19.5864 34.3205 22.2359 35.418 24.9986 35.418C27.7613 35.418 30.4108 34.3205 32.3643 32.367C34.3178 30.4135 35.4153 27.764 35.4153 25.0013C35.4153 22.2386 34.3178 19.5891 32.3643 17.6356C30.4108 15.6821 27.7613 14.5846 24.9986 14.5846ZM24.9986 18.7513C25.8194 18.7512 26.6321 18.9127 27.3904 19.2267C28.1488 19.5406 28.8379 20.0009 29.4183 20.5811C29.9988 21.1614 30.4593 21.8503 30.7735 22.6086C31.0877 23.3668 31.2495 24.1795 31.2496 25.0003C31.2498 25.821 31.0883 26.6338 30.7743 27.3921C30.4603 28.1504 30.0001 28.8395 29.4198 29.42C28.8395 30.0004 28.1506 30.4609 27.3924 30.7752C26.6341 31.0894 25.8214 31.2512 25.0007 31.2513C23.3431 31.2513 21.7534 30.5928 20.5813 29.4207C19.4092 28.2486 18.7507 26.6589 18.7507 25.0013C18.7507 23.3437 19.4092 21.754 20.5813 20.5819C21.7534 19.4098 23.3431 18.7513 25.0007 18.7513M35.9382 11.4596C35.2475 11.4596 34.5851 11.734 34.0968 12.2224C33.6084 12.7108 33.334 13.3731 33.334 14.0638C33.334 14.7545 33.6084 15.4168 34.0968 15.9052C34.5851 16.3936 35.2475 16.668 35.9382 16.668C36.6288 16.668 37.2912 16.3936 37.7796 15.9052C38.268 15.4168 38.5423 14.7545 38.5423 14.0638C38.5423 13.3731 38.268 12.7108 37.7796 12.2224C37.2912 11.734 36.6288 11.4596 35.9382 11.4596Z" fill="url(#paint0_linear_2699_1306)"/>
<defs>
<linearGradient id="paint0_linear_2699_1306" x1="57.1141" y1="46.6915" x2="3.95182" y2="-7.33475" gradientUnits="userSpaceOnUse">
<stop stop-color="#2C1C0C"/>
<stop offset="0.14" stop-color="#CB8001"/>
<stop offset="0.3" stop-color="#FCDA84"/>
<stop offset="0.485" stop-color="#FEF4A4"/>
<stop offset="0.685" stop-color="#FCDA84"/>
<stop offset="0.84" stop-color="#CB8001"/>
<stop offset="1" stop-color="#2C1C0C"/>
</linearGradient>
</defs>
</svg>
