<svg width="52" height="52" viewBox="0 0 52 52" fill="none" xmlns="http://www.w3.org/2000/svg">
<mask id="path-1-inside-1_2548_2912" fill="white">
<path fill-rule="evenodd" clip-rule="evenodd" d="M26.6046 8.20363C26.2471 7.93212 25.7525 7.93212 25.395 8.20363C24.832 8.6312 21.0966 11.5618 18.6823 16.6116C14.9754 14.4708 11.5556 13.9374 10.9469 13.8532C10.5035 13.7919 10.0733 14.0327 9.89383 14.4428C9.62593 15.0548 7.89235 19.1863 8.19509 24.4561C5.80944 24.568 4.09733 25.0646 3.70702 25.1842C3.28089 25.3148 2.99261 25.7116 3.00014 26.1572C3.01509 27.0412 3.29584 35.5279 10.4187 40.6915C17.0434 45.4944 24.2694 43.7982 25.9962 43.2956C27.7092 43.7953 34.9468 45.5037 41.5813 40.6937C48.7041 35.5301 48.9849 27.0434 48.9998 26.1594C49.0073 25.7153 48.721 25.3194 48.2967 25.1876C47.9036 25.0654 46.2207 24.5573 43.8066 24.4525C44.1083 19.1844 42.3755 15.0546 42.1076 14.4428C41.9281 14.0327 41.498 13.7919 41.0546 13.8532C40.4458 13.9374 37.0252 14.471 33.3176 16.6125C30.9034 11.5621 27.1676 8.63122 26.6046 8.20363ZM34.1031 18.4702C34.8863 20.5937 35.3983 23.0218 35.386 25.733V25.7331C35.3541 32.5945 32.0892 37.528 29.5306 40.3464C32.5875 39.2595 36.8441 36.9345 39.5886 32.0361C43.3969 25.2396 41.4091 18.2737 40.5628 15.9676C39.3003 16.2229 36.7646 16.8881 34.1031 18.4702ZM22.468 40.3454C19.9096 37.5268 16.6454 32.5937 16.6135 25.7331V25.733C16.6012 23.0214 17.1133 20.5929 17.8968 18.4693C15.2358 16.8879 12.7009 16.2229 11.4386 15.9676C10.5923 18.2737 8.60455 25.2396 12.4128 32.0361L12.4128 32.0361C15.1565 36.933 19.4113 39.258 22.468 40.3454ZM18.6135 25.724C18.5757 17.3846 24.0592 11.9508 25.9998 10.2881C27.9403 11.9508 33.4238 17.3846 33.3861 25.724C33.3469 34.1383 27.911 39.3883 25.9998 40.9778C24.0885 39.3883 18.6526 34.1382 18.6135 25.724ZM10.6681 33.0137C13.5296 38.1208 17.849 40.7027 21.1688 41.9949C18.4682 42.0486 14.9353 41.4957 11.5926 39.0723L11.5926 39.0723C6.23398 35.1876 5.2309 29.1103 5.04274 26.8973C5.77169 26.7267 6.9536 26.5076 8.40587 26.4488C8.73364 28.5579 9.42238 30.7906 10.6681 33.0137ZM43.5961 26.4457C43.2685 28.5557 42.5797 30.7895 41.3334 33.0137C38.4703 38.1236 34.1477 40.7055 30.8272 41.997C33.5283 42.0514 37.0631 41.4991 40.4073 39.0745L40.4074 39.0745C45.7705 35.1865 46.7708 29.1022 46.9577 26.8939C46.2355 26.7204 45.0634 26.4993 43.5961 26.4457Z"/>
</mask>
<path d="M25.395 8.20363L24.1854 6.61088L25.395 8.20363ZM26.6046 8.20363L25.395 9.79637L26.6046 8.20363ZM18.6823 16.6116L17.6821 18.3435L19.5542 19.4247L20.4867 17.4743L18.6823 16.6116ZM10.9469 13.8532L11.2209 11.872L10.9469 13.8532ZM9.89383 14.4428L11.726 15.2447L11.726 15.2447L9.89383 14.4428ZM8.19509 24.4561L8.28873 26.4539L10.3077 26.3593L10.1918 24.3414L8.19509 24.4561ZM3.70702 25.1842L3.12106 23.272L3.12104 23.272L3.70702 25.1842ZM3.00014 26.1572L1.00043 26.191L3.00014 26.1572ZM10.4187 40.6915L11.5926 39.0723L11.5926 39.0723L10.4187 40.6915ZM25.9962 43.2956L26.5563 41.3757L25.9968 41.2125L25.4373 41.3753L25.9962 43.2956ZM41.5813 40.6937L40.4074 39.0745L40.4073 39.0745L41.5813 40.6937ZM48.9998 26.1594L47.0001 26.1256V26.1256L48.9998 26.1594ZM48.2967 25.1876L48.8903 23.2777L48.8903 23.2777L48.2967 25.1876ZM43.8066 24.4525L41.8099 24.3382L41.6939 26.3627L43.7199 26.4506L43.8066 24.4525ZM42.1076 14.4428L40.2755 15.2447V15.2447L42.1076 14.4428ZM41.0546 13.8532L40.7806 11.872V11.872L41.0546 13.8532ZM33.3176 16.6125L31.5132 17.475L32.4457 19.4258L34.318 18.3443L33.3176 16.6125ZM34.1031 18.4702L33.0811 16.751L31.6508 17.6013L32.2267 19.1624L34.1031 18.4702ZM35.386 25.733L33.386 25.724V25.733H35.386ZM35.386 25.7331L37.386 25.7424V25.7331H35.386ZM29.5306 40.3464L28.0498 39.0021L30.2007 42.2308L29.5306 40.3464ZM39.5886 32.0361L37.8439 31.0585L37.8438 31.0585L39.5886 32.0361ZM40.5628 15.9676L42.4404 15.2786L41.849 13.6671L40.1665 14.0073L40.5628 15.9676ZM22.468 40.3454L21.7977 42.2297L23.9489 39.0011L22.468 40.3454ZM16.6135 25.7331H14.6135L14.6135 25.7424L16.6135 25.7331ZM16.6135 25.733H18.6135L18.6135 25.724L16.6135 25.733ZM17.8968 18.4693L19.7732 19.1615L20.3492 17.6002L18.9186 16.75L17.8968 18.4693ZM11.4386 15.9676L11.835 14.0073L10.1525 13.6671L9.56108 15.2786L11.4386 15.9676ZM12.4128 32.0361L10.6681 33.0137L10.6826 33.0396L10.6979 33.0651L12.4128 32.0361ZM12.4128 32.0361L14.1576 31.0585L14.1431 31.0326L14.1278 31.0071L12.4128 32.0361ZM25.9998 10.2881L27.3011 8.76934L25.9998 7.65437L24.6985 8.76934L25.9998 10.2881ZM18.6135 25.724L16.6135 25.733L16.6135 25.7333L18.6135 25.724ZM33.3861 25.724L35.386 25.7333L35.386 25.733L33.3861 25.724ZM25.9998 40.9778L24.7209 42.5155L25.9998 43.5791L27.2786 42.5155L25.9998 40.9778ZM21.1688 41.9949L21.2086 43.9945L21.8943 40.1311L21.1688 41.9949ZM10.6681 33.0137L12.4129 32.0361L12.4128 32.0361L10.6681 33.0137ZM11.5926 39.0723L10.4 40.6778L10.4093 40.6847L10.4187 40.6915L11.5926 39.0723ZM11.5926 39.0723L12.7852 37.4668L12.7759 37.4599L12.7665 37.453L11.5926 39.0723ZM5.04274 26.8973L4.58705 24.9499L2.90344 25.3439L3.04993 27.0667L5.04274 26.8973ZM8.40587 26.4488L10.3821 26.1417L10.1081 24.3782L8.32492 24.4505L8.40587 26.4488ZM41.3334 33.0137L39.5886 32.0361L39.5886 32.0361L41.3334 33.0137ZM43.5961 26.4457L43.6691 24.447L41.8925 24.3821L41.6197 26.1389L43.5961 26.4457ZM30.8272 41.997L30.1022 40.1331L30.787 43.9966L30.8272 41.997ZM40.4073 39.0745L41.5813 40.6937L41.6258 40.6614L41.6685 40.6268L40.4073 39.0745ZM40.4074 39.0745L39.2335 37.4552L39.1889 37.4876L39.1462 37.5223L40.4074 39.0745ZM46.9577 26.8939L48.9506 27.0626L49.0955 25.3506L47.4249 24.9492L46.9577 26.8939ZM26.6046 9.79637C26.2471 10.0679 25.7525 10.0679 25.395 9.79637L27.8142 6.61088C26.7417 5.79637 25.2578 5.79637 24.1854 6.61088L26.6046 9.79637ZM20.4867 17.4743C22.7006 12.8434 26.1453 10.1451 26.6046 9.79637L24.1854 6.61088C23.5186 7.11725 19.4925 10.2801 16.8779 15.7489L20.4867 17.4743ZM10.6729 15.8343C11.1561 15.9012 14.29 16.3846 17.6821 18.3435L19.6825 14.8797C15.6607 12.5571 11.955 11.9736 11.2209 11.872L10.6729 15.8343ZM11.726 15.2447C11.5465 15.6548 11.1163 15.8956 10.6729 15.8343L11.2209 11.872C9.89064 11.6881 8.60017 12.4105 8.06167 13.6408L11.726 15.2447ZM10.1918 24.3414C9.91542 19.5303 11.5095 15.7393 11.726 15.2447L8.06167 13.6408C7.74236 14.3702 5.86929 18.8423 6.19838 24.5708L10.1918 24.3414ZM4.29298 27.0964C4.58769 27.0061 6.12606 26.5553 8.28873 26.4539L8.10145 22.4583C5.49281 22.5806 3.60697 23.1231 3.12106 23.272L4.29298 27.0964ZM4.99986 26.1234C5.00739 26.569 4.71911 26.9659 4.29299 27.0964L3.12104 23.272C1.84266 23.6637 0.977823 24.8542 1.00043 26.191L4.99986 26.1234ZM11.5926 39.0723C5.2977 34.5088 5.01332 26.9196 4.99986 26.1234L1.00043 26.191C1.01686 27.1627 1.29398 36.5469 9.24482 42.3108L11.5926 39.0723ZM25.4373 41.3753C23.8769 41.8294 17.4431 43.3139 11.5926 39.0723L9.24475 42.3107C16.6437 47.675 24.662 45.7669 26.555 45.216L25.4373 41.3753ZM40.4073 39.0745C34.5482 43.3225 28.1039 41.8271 26.5563 41.3757L25.4361 45.2156C27.3146 45.7636 35.3455 47.685 42.7552 42.313L40.4073 39.0745ZM47.0001 26.1256C46.9867 26.9218 46.7023 34.5111 40.4074 39.0745L42.7552 42.313C50.706 36.5491 50.9831 27.165 50.9995 26.1933L47.0001 26.1256ZM47.7032 27.0975C47.279 26.9657 46.9926 26.5698 47.0001 26.1256L50.9995 26.1933C51.0221 24.8608 50.1629 23.6732 48.8903 23.2777L47.7032 27.0975ZM43.7199 26.4506C45.8982 26.5452 47.3998 27.0032 47.7032 27.0975L48.8903 23.2777C48.4073 23.1276 46.5431 22.5694 43.8933 22.4544L43.7199 26.4506ZM40.2755 15.2447C40.4919 15.7392 42.0853 19.5286 41.8099 24.3382L45.8033 24.5669C46.1313 18.8402 44.259 14.3701 43.9398 13.6408L40.2755 15.2447ZM41.3285 15.8343C40.8851 15.8956 40.455 15.6548 40.2755 15.2447L43.9398 13.6408C43.4013 12.4105 42.1108 11.6881 40.7806 11.872L41.3285 15.8343ZM34.318 18.3443C37.7106 16.3847 40.8452 15.9012 41.3285 15.8343L40.7806 11.872C40.0463 11.9736 36.3397 12.5572 32.3173 14.8806L34.318 18.3443ZM25.395 9.79637C25.8542 10.1452 29.2993 12.8438 31.5132 17.475L35.1221 15.7499C32.5075 10.2805 28.481 7.11728 27.8142 6.61088L25.395 9.79637ZM32.2267 19.1624C32.9355 21.084 33.3971 23.275 33.3861 25.724L37.386 25.7421C37.3995 22.7686 36.8372 20.1033 35.9795 17.7781L32.2267 19.1624ZM33.386 25.733V25.7331H37.386V25.733H33.386ZM33.3861 25.7238C33.3573 31.92 30.4132 36.3987 28.0498 39.0021L31.0114 41.6907C33.7651 38.6574 37.351 33.2691 37.386 25.7424L33.3861 25.7238ZM30.2007 42.2308C33.5341 41.0455 38.2732 38.4755 41.3334 33.0137L37.8438 31.0585C35.4149 35.3935 31.6409 37.4734 28.8606 38.4619L30.2007 42.2308ZM41.3334 33.0137C45.5802 25.4347 43.3466 17.748 42.4404 15.2786L38.6853 16.6567C39.4716 18.7995 41.2137 25.0445 37.8439 31.0585L41.3334 33.0137ZM40.1665 14.0073C38.7677 14.2901 35.9984 15.0169 33.0811 16.751L35.125 20.1894C37.5308 18.7593 39.8329 18.1557 40.9592 17.928L40.1665 14.0073ZM23.9489 39.0011C21.5856 36.3976 18.6423 31.9192 18.6135 25.7238L14.6135 25.7424C14.6485 33.2682 18.2336 38.6561 20.9871 41.6896L23.9489 39.0011ZM18.6135 25.7331V25.733H14.6135V25.7331H18.6135ZM18.6135 25.724C18.6024 23.2747 19.0642 21.0834 19.7732 19.1615L16.0204 17.7771C15.1625 20.1025 14.6001 22.7681 14.6135 25.7421L18.6135 25.724ZM18.9186 16.75C16.0019 15.0166 13.2334 14.2901 11.835 14.0073L11.0423 17.928C12.1683 18.1557 14.4697 18.7591 16.875 20.1886L18.9186 16.75ZM9.56108 15.2786C8.65485 17.748 6.4213 25.4347 10.6681 33.0137L14.1576 31.0585C10.7878 25.0445 12.5298 18.7995 13.3162 16.6567L9.56108 15.2786ZM10.6979 33.0651L10.6979 33.0651L14.1278 31.0071L14.1278 31.0071L10.6979 33.0651ZM10.6681 33.0137C13.7273 38.4738 18.4644 41.0439 21.7977 42.2297L23.1383 38.461C20.3582 37.4721 16.5858 35.3921 14.1576 31.0585L10.6681 33.0137ZM24.6985 8.76934C22.6241 10.5467 16.5717 16.4926 16.6135 25.733L20.6135 25.7149C20.5798 18.2767 25.4943 13.3549 27.3011 11.8069L24.6985 8.76934ZM35.386 25.733C35.4279 16.4926 29.3754 10.5467 27.3011 8.76934L24.6985 11.8069C26.5052 13.3549 31.4198 18.2767 31.3861 25.7149L35.386 25.733ZM27.2786 42.5155C29.3442 40.7977 35.3427 35.041 35.386 25.7333L31.3861 25.7146C31.3511 33.2355 26.4778 37.979 24.7209 39.4401L27.2786 42.5155ZM16.6135 25.7333C16.6568 35.041 22.6553 40.7977 24.7209 42.5155L27.2786 39.4401C25.5217 37.9789 20.6484 33.2355 20.6135 25.7147L16.6135 25.7333ZM21.8943 40.1311C18.8563 38.9486 14.9796 36.6171 12.4129 32.0361L8.92329 33.9914C12.0795 39.6245 16.8417 42.4568 20.4433 43.8587L21.8943 40.1311ZM10.4187 40.6915C14.2084 43.4391 18.2064 44.0542 21.2086 43.9945L21.129 39.9953C18.7301 40.043 15.6621 39.5524 12.7666 37.4531L10.4187 40.6915ZM10.3999 40.6778L10.4 40.6778L12.7853 37.4668L12.7852 37.4668L10.3999 40.6778ZM3.04993 27.0667C3.25313 29.4566 4.33925 36.2843 10.4187 40.6916L12.7665 37.453C8.12872 34.0909 7.20866 28.7639 7.03555 26.7278L3.04993 27.0667ZM8.32492 24.4505C6.71949 24.5155 5.40968 24.7574 4.58705 24.9499L5.49843 28.8447C6.1337 28.696 7.1877 28.4998 8.48683 28.4472L8.32492 24.4505ZM12.4128 32.0361C11.2951 30.0412 10.6771 28.0394 10.3821 26.1417L6.4296 26.7559C6.7902 29.0763 7.5497 31.54 8.92331 33.9914L12.4128 32.0361ZM43.0782 33.9914C44.4524 31.5388 45.212 29.0739 45.5724 26.7525L41.6197 26.1389C41.325 28.0375 40.707 30.0403 39.5886 32.0361L43.0782 33.9914ZM31.5522 43.861C35.1545 42.4599 39.9202 39.6276 43.0782 33.9914L39.5886 32.0361C37.0205 36.6196 33.1408 38.9512 30.1022 40.1331L31.5522 43.861ZM39.2334 37.4553C36.3364 39.5556 33.2669 40.0457 30.8674 39.9975L30.787 43.9966C33.7897 44.0571 37.7897 43.4427 41.5813 40.6937L39.2334 37.4553ZM39.1462 37.5223L39.1462 37.5223L41.6685 40.6268L41.6686 40.6267L39.1462 37.5223ZM44.9648 26.7252C44.7929 28.7569 43.8753 34.0902 39.2335 37.4552L41.5812 40.6938C47.6658 36.2828 48.7487 29.4474 48.9506 27.0626L44.9648 26.7252ZM43.5231 28.4444C44.8311 28.4921 45.8691 28.6892 46.4905 28.8385L47.4249 24.9492C46.602 24.7515 45.2957 24.5064 43.6691 24.447L43.5231 28.4444Z" fill="#1F1F1F" mask="url(#path-1-inside-1_2548_2912)"/>
</svg>
