<svg width="1600" height="1694" viewBox="0 0 1600 1694" fill="none" xmlns="http://www.w3.org/2000/svg">
<path opacity="0.5" d="M849.797 895.82C851.426 914.017 817.577 923.982 800.009 895.82C781.024 870.943 794.932 813.174 849.73 796.497C901.341 776.752 983.052 814.653 999.161 895.82C1019.67 973.865 957.97 1079.15 849.93 1094.48C745.251 1115.57 615.459 1030.15 600.857 895.82C578.771 764.77 688.486 611.652 849.597 597.837C1007.58 575.23 1185.04 708.453 1198.31 895.82C1221.83 1079.91 1064.48 1280.84 850.063 1293.13C638.823 1317.25 413.532 1136.2 401.707 895.82C376.701 658.57 581.788 410.092 849.464 399.183C1113.75 373.704 1387.16 602.281 1397.47 895.82C1424.02 1186.08 1171.02 1482.39 850.196 1491.79C532.613 1518.78 211.511 1242.4 202.554 895.82C174.601 552.527 475.22 208.441 849.331 200.527C1220.09 172.021 1589.14 496.239 1596.62 895.82C1626.15 1292.28 1277.59 1683.92 850.329 1690.45C426.441 1720.34 9.39544 1348.56 3.40237 895.82C-27.5617 446.355 368.709 6.88462 849.198 1.87109" stroke="#DDC299" stroke-width="3" stroke-linecap="round"/>
</svg>
