<svg width="50" height="50" viewBox="0 0 50 50" fill="none" xmlns="http://www.w3.org/2000/svg">
<path fill-rule="evenodd" clip-rule="evenodd" d="M44.5312 10.9845C44.5312 7.93823 42.0618 5.46875 39.0155 5.46875H10.9845C7.93823 5.46875 5.46875 7.93823 5.46875 10.9845V39.0155C5.46875 42.0618 7.93823 44.5312 10.9845 44.5312H39.0155C42.0618 44.5312 44.5312 42.0618 44.5312 39.0155V10.9845ZM37.83 22.5057C35.3098 22.5338 32.9614 21.7719 30.8995 20.3608V30.2667C30.8995 34.6694 27.8858 38.4513 23.6243 39.439C17.8104 40.7654 12.8887 36.5604 12.268 31.5369C11.6188 26.5133 14.8228 22.1106 19.7334 21.1228C20.6929 20.9253 22.1362 20.9253 22.8808 21.0946V26.4003C22.6517 26.344 22.4371 26.2875 22.2114 26.2593C20.2922 25.9206 18.4335 26.8802 17.6715 28.6299C16.9095 30.3798 17.4195 32.4117 18.9717 33.5972C20.2699 34.6131 21.7103 34.7542 23.1778 34.0768C24.6454 33.4278 25.4341 32.2425 25.6034 30.6338C25.6316 30.4082 25.63 30.1541 25.63 29.9001V10.8499C25.63 10.3137 25.6342 10.3371 26.1705 10.3371H30.3755C30.6861 10.3371 30.799 10.3818 30.8272 10.7489C31.0528 14.0227 33.5384 16.8107 36.7275 17.2341C37.0662 17.2905 37.4291 17.3129 37.83 17.3411V22.5057Z" fill="url(#paint0_linear_2699_1325)"/>
<defs>
<linearGradient id="paint0_linear_2699_1325" x1="55.1068" y1="45.3336" x2="5.26838" y2="-5.31341" gradientUnits="userSpaceOnUse">
<stop stop-color="#2C1C0C"/>
<stop offset="0.14" stop-color="#CB8001"/>
<stop offset="0.3" stop-color="#FCDA84"/>
<stop offset="0.485" stop-color="#FEF4A4"/>
<stop offset="0.685" stop-color="#FCDA84"/>
<stop offset="0.84" stop-color="#CB8001"/>
<stop offset="1" stop-color="#2C1C0C"/>
</linearGradient>
</defs>
</svg>
