<svg width="50" height="50" viewBox="0 0 50 50" fill="none" xmlns="http://www.w3.org/2000/svg">
<path d="M20.8346 31.2513L31.6471 25.0013L20.8346 18.7513V31.2513ZM44.918 14.9388C45.1888 15.918 45.3763 17.2305 45.5013 18.8971C45.6471 20.5638 45.7096 22.0013 45.7096 23.2513L45.8346 25.0013C45.8346 29.5638 45.5013 32.918 44.918 35.0638C44.3971 36.9388 43.1888 38.1471 41.3138 38.668C40.3346 38.9388 38.543 39.1263 35.793 39.2513C33.0846 39.3971 30.6055 39.4596 28.3138 39.4596L25.0013 39.5846C16.2721 39.5846 10.8346 39.2513 8.6888 38.668C6.8138 38.1471 5.60547 36.9388 5.08464 35.0638C4.8138 34.0846 4.6263 32.7721 4.5013 31.1055C4.35547 29.4388 4.29297 28.0013 4.29297 26.7513L4.16797 25.0013C4.16797 20.4388 4.5013 17.0846 5.08464 14.9388C5.60547 13.0638 6.8138 11.8555 8.6888 11.3346C9.66797 11.0638 11.4596 10.8763 14.2096 10.7513C16.918 10.6055 19.3971 10.543 21.6888 10.543L25.0013 10.418C33.7305 10.418 39.168 10.7513 41.3138 11.3346C43.1888 11.8555 44.3971 13.0638 44.918 14.9388Z" fill="url(#paint0_linear_2699_1312)"/>
<defs>
<linearGradient id="paint0_linear_2699_1312" x1="57.1152" y1="40.1838" x2="22.3418" y2="-10.2985" gradientUnits="userSpaceOnUse">
<stop stop-color="#2C1C0C"/>
<stop offset="0.14" stop-color="#CB8001"/>
<stop offset="0.3" stop-color="#FCDA84"/>
<stop offset="0.485" stop-color="#FEF4A4"/>
<stop offset="0.685" stop-color="#FCDA84"/>
<stop offset="0.84" stop-color="#CB8001"/>
<stop offset="1" stop-color="#2C1C0C"/>
</linearGradient>
</defs>
</svg>
